<mxfile host="app.diagrams.net" modified="2022-03-24T04:08:34.612Z" agent="5.0 (Windows NT 10.0; Win64; x64) AppleWebKit/537.36 (KHTML, like Gecko) Chrome/99.0.4844.82 Safari/537.36" etag="Nv9uvnyG50Ljm0Qk5q3p" version="17.2.1" type="github">
  <diagram id="RSpIh4Z5WI6F2h5iAkSi" name="第 1 页">
    <mxGraphModel dx="3174" dy="1534" grid="1" gridSize="10" guides="1" tooltips="1" connect="1" arrows="1" fold="1" page="0" pageScale="1" pageWidth="827" pageHeight="1169" math="0" shadow="0">
      <root>
        <mxCell id="0" />
        <mxCell id="1" parent="0" />
        <mxCell id="wemDOvCP56XmbDkSIcLU-87" style="edgeStyle=orthogonalEdgeStyle;rounded=0;orthogonalLoop=1;jettySize=auto;html=1;entryX=0;entryY=0.5;entryDx=0;entryDy=0;fontSize=30;fontColor=#000000;exitX=1;exitY=0.5;exitDx=0;exitDy=0;" parent="1" source="7sST46Or0EcZiHkfFLdd-1" target="wemDOvCP56XmbDkSIcLU-76" edge="1">
          <mxGeometry relative="1" as="geometry">
            <mxPoint x="79.99999999999993" y="341.25" as="sourcePoint" />
          </mxGeometry>
        </mxCell>
        <mxCell id="zNEOuFTtf5db0waN-gQl-80" style="edgeStyle=orthogonalEdgeStyle;rounded=0;orthogonalLoop=1;jettySize=auto;html=1;entryX=0.001;entryY=0.533;entryDx=0;entryDy=0;entryPerimeter=0;fontSize=12;fontColor=#000000;" edge="1" parent="1" source="7sST46Or0EcZiHkfFLdd-1" target="zNEOuFTtf5db0waN-gQl-40">
          <mxGeometry relative="1" as="geometry" />
        </mxCell>
        <mxCell id="zNEOuFTtf5db0waN-gQl-81" style="edgeStyle=orthogonalEdgeStyle;rounded=0;orthogonalLoop=1;jettySize=auto;html=1;entryX=0;entryY=0.5;entryDx=0;entryDy=0;fontSize=12;fontColor=#000000;" edge="1" parent="1" source="7sST46Or0EcZiHkfFLdd-1" target="zNEOuFTtf5db0waN-gQl-52">
          <mxGeometry relative="1" as="geometry" />
        </mxCell>
        <mxCell id="7sST46Or0EcZiHkfFLdd-1" value="Kafka" style="shape=image;imageAspect=0;aspect=fixed;verticalLabelPosition=bottom;verticalAlign=top;shadow=1;sketch=0;strokeColor=#FFFFFF;image=data:image/png,iVBORw0KGgoAAAANSUhEUgAAALAAAAEeCAMAAAAdCG9GAAAAkFBMVEX///8jHyAAAAAgHB0dGBkbFhcIAAARCgxMSkofGhsXEhMUDhDv7u5RTk8GAADq6eoMAAWqqan09PTZ2dmfnp7j4+OAf392dXWYl5czMDHr6+spJSY6NzizsrLR0dHAv79DQEFYVleKiYlvbW6+vb1kYmPJycl8enuvrq6Qjo9gXl6dnJxAPT4tKSqmpaY1MjMbeUWzAAARP0lEQVR4nOVdaXfiuhIcJC/YBmLMmmEJYCDATcj//3fPLEkIqpZa3sicV1/unXMiu5ClVqur1frzh4nBS394WLw3GpPpcjSe9bjtHoJklnpC+KEjGxmkE/rZP9v9waN5EVgvRSc8U/0BxxfP/eTR5FT0Q+EqZK8IYjH6Zd3cF57at7eIRNp6NMlvbIOOnu6F8vjRPD+RisBI94TO868YFz03YtHNEIj+o9n++dMV5tHwDbF5NN+VsKCbwV881sKNLPk2GuH7Ixnb82003MnjGNuOh2sfTx/Ft5uLb2aRl4/h28vJN7MV+4cQjnjLBWS8fQDfDXu9UCH9+vm+5B4QJ0Sj2gm79AKXecBnxMA7/oSoeysy9ggmgSfa45feYNDbHtMO6SM7b/XyTYgBIcXz7nZd2B4oyuKlVsLjGLLw3fX9Xw7a+LcF9S4fMRydAk6lHfbnxLxGvjPYa6KL/3oQOeCvwzo9zTZiIJTh8ImWi9YYUZ8T9Bd1sNjRDZ7QqPA0DUpGF9g0X7sUbMFPdOvzgQ6qqQqkvskrWMhFPWwzgO4ymdUEDIraXCDgV5oXrrGvjqK6AhWzjtpZM1MjsDa6dRm2ldpZjOG4Ce8byUn1XC+vVuYcZxFA36V6rme8KctAfDS3GqhjQjxVT/YE8GbOfAfNanKKwZs5Ub5nxbDVZdcAYU7sV3VAHkiY48f8KsJ/Gc2av4kwZ/b46hiuyYdvqG8mXeFvgKWONVdLgDoYo5W51Tzn0C8BI8VVlM/mVnt1Qfeq53pGX90yMz7uRFkfnWYNZE8A24doaGoERoS5UUloIQfeNBzb6i6lY/RJy4K6yBqje2hTV5eRgA6xyaYG6m+UjZrowvHYkJFuUKBgMscWlgV10co2PJptHVRv6oxVoTHRiEgrtUd8g/pGBNw9NE6aIZ5FKfzruFbdeQmjvoEAW6X5BH2OHOtyMu8OD9NICNF5b47Gaysbg6bdmcXznRvU2xDiuW835eb7qRBx5F6sTeCEvhDeaM3/0WAduHayu/+aTIPjQiib+xwdPNiHwlcDoDIUYsN1qWlVUWa//fmQjjaLrEtQWPaMmK8tzg8CWaULQtEgotL3UF22W9JuGIYk2fMfcOn22nTy0xlBJ+LFbRlpPjTYm6NXA93zrxcfnB1PEWXRT3l0tzG2MPcIBMfxG1JSnfn5zKDakJ+eEz8zokgLygKYwHPTkoVNjzgM4S+BWguDL0tTfAos+wOtWvfPtMqo+nowyw4NhM7K4AebTeWAmWL347EsH2KQpy8YuYcD32x17h7K6t+Wl2u0MUZF65lneK4ImJr4u/V4uDJm2PeNhT2OAp6LtbHqhRtITpSvy1iMrk9jqjDH/GuSw0kSeGqyZojPicCdgLcHTHgsr2oWGj2LkLV6nrGwncg/wAweHH2dhctczpQtwODchstzIu+STuTTk9JZcN/zRrmtoeisOBHvK0jnN/N9X2fzwdNT72XcFDjHpMGL/V7Q27+L+zjhyZ1PrdJ7/iM8iFC83jqRrWODmDlWeuXT8Sdj+d63jT5gGhIk/e+I/Re/i/8ogUKnbUn3T1cVTDO4HloRkiUc7lb5T09FCT+juRtOiS0rDNFYxZSKEoab25COgvXR30ev9RFegb2tdoOCw3b1EQZhWcNS0AYzz0IALEgYrcoGnxFlVVpEcgsSBvlagUmh6oM2H3URHqnf12xVwdLID4QVJPyuvFs6xkYg/4lv2AoSVsejz9lZKq08tkBVjDBKs2H0lapq8TPMihEG4hjHpA4V4x2yl45ihNcK4YCTer5T7ITDTokrRli1aiEnbKh+mID93oKEFdmd9W1VASNY1EP4qBBmCeiqxyRrIgyGBOeEitrDkp3ZUIywmu7IyopW56pzqIewOntkzGimLnUuM8SvpMdbEgbuOyf2pGaM8921ux4O7LJkQOoIJwsELOiM7NXsdbPh9L5tIGTa5YusquPFGMRAHmJ48IPxhxDoTKAMPREOmVsAoGGbc3ZzNEq6U6StfpOORLTi9DPwFI07SjDwpd4D+TsU5oC59MXS7HjlSQ1Sczr1GeN/R4J52NIVCyNlQNgQ3UNnf3WHcFakXg/giKW2uxKYJODpbBQMJtO2cO1ZBvddoXn7mgqW0UJOCx3jJFMOk0MOcSpuUOMiJZ9GMm41UKC4Q4yIrZdLu5VYAJxLzccivsvcg4Ftwkbsc+mg5we21V244WneGxj8K9yGcEkPBaST0L17/dPUJIQ7SiGbY0R8EjjlkmleKe2M4OdmuMsRlkPR/Frkk+0rWfcGrjTJJG/qwRXyRhIl4tIqHE+IxSZNl4HQ2H4U9WkFhZSpy3M/Gb/YWPKG44ah5tQ6Ft+TSXG+Xx7VKPfchXBQHHBacDxccTpM0WsUmgvgocCaLAsUariF9FrjcrsXB5PzVUZBkKLk7oXpWsUKS/Dg+vl+SbgAE67sjwiQrYTjPN0CK/Isy5lwGjjncZhj4LkS8NVI7VcEn4q7XnQn4X1c5rl1H0eoRpNpQGQbocnrbv731LTVW++bomPHWX77ZUSZBwodGAIZaidDtqcf35nBZNa0Wcii8MbHmMf8lhLnj2iTW6T4gIJPb8POmbtLCmI7GZljhFMc1MPUN23oGE3vjfViVz1/vmNtcKU4YJlL18FUmwv6jPEomuAobDIyjigpJlSYRpOVbcrJ60UGfykQ/+GWg422lx0hyT09VSvn9CONoajkWdtTMXEG5Ex5KIhuDnzR1Ail4ODfFSzh8ZnuY2KOf2O9yYz6Tzc4iDri494o/YSqq37yZYX6koCKZ8kG4wHz8eFcUsrzvM7pv2/DmSF0TJ6EYOSUnkHOWV40N0PS26533e7sZc7JgoMnpjJEbBGPWtdZ6qE91FOol+/Z4T+CsuOsk+e2oD6oudrIN9Bp0hMqKfmjCrqXz2lVJAscbj6BJdDaIiUii3ZlyHAXV1KST0Kjxj1D8gmU5tWo5AAuscz5xIJKgZgJVumSPBBW2LprwJnoRiU1itYwiZNTReAn8LSrYNb14Yvsj9cjnaiSgnx4ttgfr8dzoQIzkUJfK0elnghXECyd8AGrCfa10oEOmO9BBrShJ5GjY7A/Ub4hXpT1JUF65e8mjIrxVUG4WRZh7JOUT3iJx7B94Rt8rL98j1itCpezY97L+uUGvOIvaV9tivBJyub7Zw/niq2zRjlRFZQP3MGghH11UFSVtJIqo9hpsf+UoCppo5IaRU/leN7EPsBj1lywAX6Ty05yvIDYylZRkQbWHLYuBfmBgxtVVMAEKWUn2BxUImdCJXXByDouNmvHFHcw4+xDDhCEbSwSdb9ENUWVyMAYe5tERaoMmYd5oeZBfzLmzjvqwHJVleIowsE7r/2IiuBzD+IMXrr74ShNR6v+usfwlvBeIUPImuQaLZZRymI+bp/C734UhmEUxdn/v7+aCilRdiKb5QzGWu1YLLTDaj70VN06iIRo678NYZQyRNSx2C+86rVFICp+YfYhcGwgM+AdMdT8VHLanQ4eay1T0jRWlKFqOXRDfV2TSKT0bmVC65la5WrGKUERReA3b9/NGmpIZ8xqujgbyDHhcs0XvEQCqb6YTnj9gdildj70KD6/MOyrAZx1k18A5zO54/OX+tz8LfL70obi0i4W7eNNuO1pPRJW9Xqc20zh/2wyPDzilrPU9JvdzERON8P9fpU2fUoj1kAsP1+MSw3SL/ahF5ZwqpYFYeRnFt7JlX8Vdi7jcWlbu0tiF6r6tDUpTi522z5zjWA8KjubT4X/PjjkeYvE4eqPnFWOACjrHNiP/Us7D4WZW6XlBnbynFLQwoVaicG2sZGtE1uLTC8W8E0x2gWPDe/kPCRFcv8RsJSc9+6/W/jLz2eVNyca5HarOOP4a+/69Ma3uNL1Yy/z4jUeAlFr2pw0qscPZ5I4QKKw9UW42R933fHrVND+HyHFbXNU37t56E9fZR6avRwp3JscqmRGVhyl4g4DmTsVPlBvqTKWmfPD+y1Jb0l8GFLtzDvBoxA80eDjQ/fxJYZt6POK7Fp2t6Dq2rUWmrJlRN5LsoArOK3wMGvZ3cKPyYgyeUaC8BFOWCLGuuyLWUzmNyLo69pRp1B0EnwTLJV6xWTPP4wRioMh1AnzZ/VRfnQwSZ9kkOxNN6RfEImDOVkBlUXSZ6sgz8YobnXfyVDHFa4QnJPYYHsgTZoj+CqMGgbzoU8egjjFlDY88QbkvcSm3oKXV3BeNh8vhDo4so3oZPjCFWZB9of53aheFFcWmO/u0rz88dYm10TtLEbNEXRbDV+NuxOb7ERvcNskJ1VSLfLg8+8duPuodrk8OW/2UVMwQn5MvxBh1UiwVHO12o7F5YKFCKs6KUtpVX+nw5e2ChFWpX6Wblmkzk8xwg+opPR/1sOljeGgpjEM6q1xNMDHWYmcdlhdm+uywyDthZO3pZYdqWulQ76EedaBRK0O35coRli9M5XhrYFsTou85mKE1fqKDc/0dVHek0U+QzHCIAImTfcEgg62qZpWjDDaPRhukkOphjanLIoRRoPY4BKrd2rapeYXJPwfihnoNjyo2IXVzXcFCcMERNkhGW9QHMcqSasgYXwHF3mqtw3jTlbJf0UJY+ESl4uaO1DSsUuvLLQJPYE42xtP7qfeE5WbYJEF93c2Un5t3/IwDSVRSTE53nzqlw0lPrpcXzg5LkRHeYgbC2dlxXlKqUoyFpPRf7v17Lhq2msc9+ilAtcSO4spC4s0Y51uKUPfE5040ihlhtjhFYOlXh12xIRPWXuTnAnG2OEJycisHUjxxh4YhkioFpxM0BmvLKPDvlWmgJjNuUiOuvYRPG3C7ORcVX5OcMxbwEHDYsQBgY7ohHxZJIx7nGwFUV0VyVssck08s0WbWctegnm+Nk+JNPOGNY9E3mGGDLBmqAGj7km+DCvBqeOdgV3k5wLHPB7oy00NjJnuKjMr4QL/wzjfEl3FYT1jZsUEfvlDyflsSDTlMmZ6yS0qw+AOvsfogtzGPYO74BHOnM3IrLKGghOTLXSJHPNmyGvH6CmbBewLmhp3x4liz4t9XT1Nm63TUZJj2fFEylvu6dS1UIjm8Libdfcbn7632K4+wzYFFdBP5c/fjtwtGJUNH4n0xnz39h71PW3LEGxXb6eaflHoum4YZW68CNMd/2wxscQF4vX+Ux8J31NbSJxAb90fjjaHQ/o63lkpwsQdZw3/HXUbkWldQR0XGtjDJk9iwL+2uM6qOOD5enpDgc8pVnMmDQMRiDWLI/SSLEsaFQGyafrFCy2LldR7wkDn1AwrAVhnbMqIFQSobm9SIuDFc/YVYfIBxHBlaGoEoiMxt5BdUYAhHBudGdDFrCuEygC6D8687qgJUxWUT8JQrTDn5LeqYNdmidW+4shM6Aqh0qsRYahGgrUGAMI1mQnwZo4jowpq1ZxwV5Hz26ojKUdJmFzIl4UBClQ8kPA/18O/ewyrEf1fbiXKs8NVlGwF+OdWutJ8Cf6dv8Xwz3lr4N3SNTUCu5Ta/GEk/P3qHUdJe7oa9/n/3K75n4tL/HuRH4IB8Y13OLZWUTUiDFxa0X/+rdFLm/hwB8eHbSvLFUWD0OjuI/AxVUCjPiN8gVbjaK+Os5PGEWk0jhwB+GJYaPKEziqS56MLJr86uKYd/jdq0+lKQxEl1KnmeggDqHJvnA6uaavxEwnrrC3kW35dfRaqzpcoH/lKj3g1emn3wF6CgW/NS9xP2GcpUepjXXixzVur1UdDGDgWKXFSc/NybbCo1OPLmj0eArw72TLfs644hBFJyskf/qgpVslCr61PMQtEUMXVR0XQ24iYMBgyElPri0ZqQKs/FZ7iAzu+8Ie/Y64BDLppdK0I64ahfyoJ2x7/pqGL0JrP+qvhKH1djXfbWnfGP/A/hfYIwAMwkj0AAAAASUVORK5CYII=;fontSize=12;" parent="1" vertex="1">
          <mxGeometry y="347" width="59.08" height="96" as="geometry" />
        </mxCell>
        <mxCell id="7sST46Or0EcZiHkfFLdd-8" value="&lt;span style=&quot;font-size: 30px;&quot;&gt;实时入湖&lt;/span&gt;" style="text;html=1;align=center;verticalAlign=middle;resizable=0;points=[];autosize=1;strokeColor=none;fillColor=none;fontSize=30;" parent="1" vertex="1">
          <mxGeometry x="70" y="-160" width="140" height="40" as="geometry" />
        </mxCell>
        <mxCell id="wemDOvCP56XmbDkSIcLU-37" style="edgeStyle=orthogonalEdgeStyle;rounded=0;orthogonalLoop=1;jettySize=auto;html=1;entryX=0;entryY=0.5;entryDx=0;entryDy=0;fontColor=#000000;" parent="1" source="tWKeSwH2M4YH6WwzVB8o-3" target="wemDOvCP56XmbDkSIcLU-20" edge="1">
          <mxGeometry relative="1" as="geometry" />
        </mxCell>
        <mxCell id="tWKeSwH2M4YH6WwzVB8o-3" value="Nginx&#xa;流量日志" style="shape=image;imageAspect=0;aspect=fixed;verticalLabelPosition=bottom;verticalAlign=top;image=data:image/png,iVBORw0KGgoAAAANSUhEUgAAANEAAADyCAMAAADk3NBFAAAApVBMVEUAljn///8AlTVCqWIAkCYAjh/B4csAkzAAlDMAjyIAkSsAjyUAjRz5/fvA4Mn1+/fp6emgz63J5NHX691Trm2DwpV2vIqNjY0on02u17rw+fOTyqPU6tvO59aZzaiLi4va2tr09PQ0o1ZktXzm9OtVr29uuYMWm0Tg8OakpKSt1rk4pFmWy6VGqWQAhwBzu4e8vLyZmZnNzc2urq7FxcWqqqrh4eEeE7clAAAKIklEQVR4nOWda1ujPBCGkzQYSGlrq/Sobg/26Ha1urv//6e9YN3aAwmTkFDC+3zYy/1g4S7M48wQJghXTejaJ2BcxRDdtaNu1L4r5FgFELUiFnDGGA9Y1LJ/OPtEbc7RP3Hetn4820Q3fYqORfsdy0e0S/R8HxB0KuLdP1s9pk2iRuT56FK+FzUsHtUi0QbxFJ7PcEIDe4e1RvQwrQt4EtWnD7YObIloOAvPA+gsnMLZ0M6h7RCNOJPyJGJ8ZOXYNoiaS1EAnYXTsmnh6OaJVi8Xji289YKXlfHjmyYadlMdWyTf65oOJ8NEbZYdQKdizHBiZJSouaTZCBeiS6OJkUGi1daDBtCpSDg3mBgZI2p1A5UAOhWj5hIjU0THNYOOODOVGJkh6vRlKQ9MwfTRyLmYIHqeaQbQqYhnJDEyQBRRVccWyUhilJtowPIF0Kk4yp0Y5SR6fAkM8iQKtjlbRrmIhmYC6FR+8JqrY5SHaBSYCqBTMfp0FSJozaAj2r8pnOhuC64ZdEQC7cRIj6ilVjPoKK4z9MJJi6gNKLrzi+vVGRpEnb5OzaAjrQasMlFKm9SedMJJkagRhbYD6FRMuQGrRrQh9hxbJNUGrAqRvE1qT/UXlQYsnCizTWpPSg1YMNHIWM2gI4U6A0jUFD5nKErgBiyI6K5WoGOLRIIaqAELIBp2C3ZskfwQ0oDNJmobLVLzCZIYZRF1tNqk9pSdGMmJVvcWitR8It69PJxkRI0oR5vUnlggTYwkRBu/PAF0Kk42GkSPBtqk9lTvCxuwAiJDbVJ7It5MUGekE1035YGJ0fTEKI1ocIWaQUecpCVGl0RxynPtUwUrqF02YM+JWotSOrZIfrA47xidET05EECnumjAnhDdlCzlgYkubwREqyK7PCZFguPE6EDUsN8mtSff6zbOicpUM+jou87YE92VOuWBqd6/+yZqlzzlgYl47X9EUXjtkzGkMNoTDaoCFCMNEqKh25ZwKjaMibpVIuJdjBoupgli0QZqVoyoiSLXUlO5WIRm7uY+afJnaJvrjyvxGfON/nkm+T6PbFFN+/cJr/Pp/HVx3+fUUFnFA1RbzKa8rv1xpKZPRJejQ0n8PJgxmvtScfTzqyroLHS/In0idv50tLXJuyiAjo5apau5Xu6sTVSfpTRqN7nuPX72sHXk6XyKLhGNLnmS66T5xSYKLvrzTzo9KU0iNksFivVT64uNFaS03hYal1yTiIifDWz0EvnU76ilkXHqEVHZkomNVv+Spjaxn9SR9Ii4BChZGan8gaLbWCOL1iISR9Fec/VvVnTV58opmhZR5nvHL8oRfWl0e6nfdlpENGupxBCpfqYnsBr1UkePKHNV7J2qh3uCD7opCxFuKnp4+YnwSC15cIAIz5Ri2gUiPFUxXieIWiqG5wQRvlM4GzeIVAzPESKFDM8VIryAGp4zROAMzx0iqOG5Q4RXsFByiAg3QUmrS0Swjo5TRCDDc4sIYniOEQEMzzEivMq871wjwjdZGZ5zRPgpw8PdI8oyvLISyVbKb6WGV1airYSosZQdp6xEv9KfKu31LDu5shJ5nqx/3JGkQ6UlQqHs5aC2GKm8RIjLXpp+FRpeiYnIUmZ4NZHhlZgIMS3DKzMRol0J0kpwhqUmQnLDS8/wyk2EPKnhpWZ4JSeSG1437STLTiQ3vLQMr+xEcsPDKYZXeiK54T1f/qEtP1GG4V24gwNE8gxvc47kApGa4TlBpGR4ThAhVpMQNZYnD57dIEL8VYL0fHKRHCFCgczwHo8zPFeIkCfrgx0bnjNEiMrGXUTfp+sOkdzw7g+x5A6R3PDwwfAcIpIb3pAR94hQIJsk+hg4SIRCgOG5RQQxPMeIyFI2RvRzLbVjRIi9SIhw33ePCPGFhCgxPOeI5Ib34DlIJM/wBqGDRML3CD4V/XKQiCCZ4Ym6YWUmkmd4ItpSE8kNz0kiFPysGhEKlXdeKDsR4qo7UpWeSG54LhJlZHguEqka3rXfeoMsG1YzPBeIkKdieE4QyTM8J4lUDM8NIhXDc4QI8YzXuN0jQgF06L0zROAMz4G/sIfPgG2t5RAR0PDcuesQ8vtVI4IZnlNEqA4wPLeIPoc2VosIhZmGVxSR4Lsdqg6hISRri4+CiLigxAG+KXqkTMNrFzO5xRd0QDfqU3X4XE6kPgBRbwJSmP5IX324T2x4spdHMC5oApJgYFDK0kaApCttNK667my0tIs00xteF4qRWsXNRmMpixRudHdA8IQ33rw4opR7Rd3oDqLbdBN/1ZnCqD018fyL7eSZAemnPdRszLU+Un+yJT0ett+Ico5wp8vNWWgOiF5Y5pg+6geLr+XCq5/5d0UhlL02D2t1V0/a20TkmaeKGKXL+WzK6mbGaTNaZ9tZtztPPlF/bG0t3xRf4rM8v375eSzvUGCyreCk5epNw67exPJWxYhaFZz8j4dVCqTP3Rmqt4NGlXY5SRpm+51orrbfsEmR8LATDcYPldgtaD/yvKo7OuEK7rqFq7czWqKq7V6XqGo7DOIK7gKZOHnFdupM5M5uqmlPSf4fO97iCu5KjKu3c3Siqu3ujSu4AztOEqPShRPx7uVLDuVE5UuM6FI2ygJClNQZ5XHy75ohDxEedsNyhJMfdrOWC8CIPrcwv344kaAGWrMLIsK4ia7t5HwJXGUIJLp2YsQ4dCEonAgPZ1frGJFwlhVAf8fjv6pEcWI0vU5iVH95kJ/Y5K335+1t3futShQnRleoM/j5XoYXut2jxGC7iSpRnBgV7OTMk6Y8n0A/bv/9+L5TJorrjCI7RiSYy0ZD7bUbx1cp1nqM8dubOlGcGOXdwBIsOs1KeWKN18l9d4snv5Nr1ZtoECXL3opwckjKE+tj/O/G+5FcpHctItyy34D1vS7sHZjd7RfRuDeJI+lNjyiuM7ZWwwkUQHslHLe99XqXGB0eaxPFidHSnpPTPnwq+jq5Rr3x7e36I/7f+299omQ3IDvhxCgogL709v51101+TDD+8zcPER4uLJS4fgAMoC/d7g7OEBteT8e9j/XwYroBG2xhr7186+N3nC1M4h/if9bveYkwHhh9lMaR8rvnsdu9H+A+NHKGS0XG6gyFmuFE63WSd0/ed2/YCJGpBizxMmsGkcZ/ertd7+MzvzNBhHHHQGIUTDNqBrkmk68fzBAliVG+cOJ+9psuMJkiihOjHA1YRjNrBrCMESWJkWY4kRCc8gBkkChJjHTCifYBNQNcRol0FnoAawa4DBPhoVqdAa4Z4DJNFIcTvAFLPFibVEnmieB1BrhNqiQbRHGdASjbdVOeLNkhym7AAtqkmrJEFNcZ0gZsPV/KI5M1orjOED7PyG6T5pBFItyIUp3cz26T5pFNotQGLPHuDaY8KbJLdNmANZzypMg20WmdwdNfPDUq+0S4NWIBZ4zxgI1MpzwpKoAoVucp6kZPtu+3vYohKlLVI/oPvLDD1gwexmUAAAAASUVORK5CYII=;" parent="1" vertex="1">
          <mxGeometry x="-400" y="203.75" width="77.73" height="90" as="geometry" />
        </mxCell>
        <mxCell id="wemDOvCP56XmbDkSIcLU-36" style="edgeStyle=orthogonalEdgeStyle;rounded=0;orthogonalLoop=1;jettySize=auto;html=1;entryX=0;entryY=0.452;entryDx=0;entryDy=0;entryPerimeter=0;fontColor=#000000;" parent="1" source="tWKeSwH2M4YH6WwzVB8o-16" target="wemDOvCP56XmbDkSIcLU-28" edge="1">
          <mxGeometry relative="1" as="geometry" />
        </mxCell>
        <mxCell id="tWKeSwH2M4YH6WwzVB8o-16" value="用户" style="verticalLabelPosition=bottom;html=1;verticalAlign=top;align=center;strokeColor=none;fillColor=#00BEF2;shape=mxgraph.azure.user;" parent="1" vertex="1">
          <mxGeometry x="-800" y="355" width="70" height="80" as="geometry" />
        </mxCell>
        <mxCell id="wemDOvCP56XmbDkSIcLU-38" style="edgeStyle=orthogonalEdgeStyle;rounded=0;orthogonalLoop=1;jettySize=auto;html=1;entryX=0;entryY=0.5;entryDx=0;entryDy=0;fontColor=#000000;" parent="1" source="wemDOvCP56XmbDkSIcLU-7" target="wemDOvCP56XmbDkSIcLU-19" edge="1">
          <mxGeometry relative="1" as="geometry" />
        </mxCell>
        <mxCell id="wemDOvCP56XmbDkSIcLU-7" value="Nginx&#xa;业务负载均衡" style="shape=image;imageAspect=0;aspect=fixed;verticalLabelPosition=bottom;verticalAlign=top;image=data:image/png,iVBORw0KGgoAAAANSUhEUgAAANEAAADyCAMAAADk3NBFAAAApVBMVEUAljn///8AlTVCqWIAkCYAjh/B4csAkzAAlDMAjyIAkSsAjyUAjRz5/fvA4Mn1+/fp6emgz63J5NHX691Trm2DwpV2vIqNjY0on02u17rw+fOTyqPU6tvO59aZzaiLi4va2tr09PQ0o1ZktXzm9OtVr29uuYMWm0Tg8OakpKSt1rk4pFmWy6VGqWQAhwBzu4e8vLyZmZnNzc2urq7FxcWqqqrh4eEeE7clAAAKIklEQVR4nOWda1ujPBCGkzQYSGlrq/Sobg/26Ha1urv//6e9YN3aAwmTkFDC+3zYy/1g4S7M48wQJghXTejaJ2BcxRDdtaNu1L4r5FgFELUiFnDGGA9Y1LJ/OPtEbc7RP3Hetn4820Q3fYqORfsdy0e0S/R8HxB0KuLdP1s9pk2iRuT56FK+FzUsHtUi0QbxFJ7PcEIDe4e1RvQwrQt4EtWnD7YObIloOAvPA+gsnMLZ0M6h7RCNOJPyJGJ8ZOXYNoiaS1EAnYXTsmnh6OaJVi8Xji289YKXlfHjmyYadlMdWyTf65oOJ8NEbZYdQKdizHBiZJSouaTZCBeiS6OJkUGi1daDBtCpSDg3mBgZI2p1A5UAOhWj5hIjU0THNYOOODOVGJkh6vRlKQ9MwfTRyLmYIHqeaQbQqYhnJDEyQBRRVccWyUhilJtowPIF0Kk4yp0Y5SR6fAkM8iQKtjlbRrmIhmYC6FR+8JqrY5SHaBSYCqBTMfp0FSJozaAj2r8pnOhuC64ZdEQC7cRIj6ilVjPoKK4z9MJJi6gNKLrzi+vVGRpEnb5OzaAjrQasMlFKm9SedMJJkagRhbYD6FRMuQGrRrQh9hxbJNUGrAqRvE1qT/UXlQYsnCizTWpPSg1YMNHIWM2gI4U6A0jUFD5nKErgBiyI6K5WoGOLRIIaqAELIBp2C3ZskfwQ0oDNJmobLVLzCZIYZRF1tNqk9pSdGMmJVvcWitR8It69PJxkRI0oR5vUnlggTYwkRBu/PAF0Kk42GkSPBtqk9lTvCxuwAiJDbVJ7It5MUGekE1035YGJ0fTEKI1ocIWaQUecpCVGl0RxynPtUwUrqF02YM+JWotSOrZIfrA47xidET05EECnumjAnhDdlCzlgYkubwREqyK7PCZFguPE6EDUsN8mtSff6zbOicpUM+jou87YE92VOuWBqd6/+yZqlzzlgYl47X9EUXjtkzGkMNoTDaoCFCMNEqKh25ZwKjaMibpVIuJdjBoupgli0QZqVoyoiSLXUlO5WIRm7uY+afJnaJvrjyvxGfON/nkm+T6PbFFN+/cJr/Pp/HVx3+fUUFnFA1RbzKa8rv1xpKZPRJejQ0n8PJgxmvtScfTzqyroLHS/In0idv50tLXJuyiAjo5apau5Xu6sTVSfpTRqN7nuPX72sHXk6XyKLhGNLnmS66T5xSYKLvrzTzo9KU0iNksFivVT64uNFaS03hYal1yTiIifDWz0EvnU76ilkXHqEVHZkomNVv+Spjaxn9SR9Ii4BChZGan8gaLbWCOL1iISR9Fec/VvVnTV58opmhZR5nvHL8oRfWl0e6nfdlpENGupxBCpfqYnsBr1UkePKHNV7J2qh3uCD7opCxFuKnp4+YnwSC15cIAIz5Ri2gUiPFUxXieIWiqG5wQRvlM4GzeIVAzPESKFDM8VIryAGp4zROAMzx0iqOG5Q4RXsFByiAg3QUmrS0Swjo5TRCDDc4sIYniOEQEMzzEivMq871wjwjdZGZ5zRPgpw8PdI8oyvLISyVbKb6WGV1airYSosZQdp6xEv9KfKu31LDu5shJ5nqx/3JGkQ6UlQqHs5aC2GKm8RIjLXpp+FRpeiYnIUmZ4NZHhlZgIMS3DKzMRol0J0kpwhqUmQnLDS8/wyk2EPKnhpWZ4JSeSG1437STLTiQ3vLQMr+xEcsPDKYZXeiK54T1f/qEtP1GG4V24gwNE8gxvc47kApGa4TlBpGR4ThAhVpMQNZYnD57dIEL8VYL0fHKRHCFCgczwHo8zPFeIkCfrgx0bnjNEiMrGXUTfp+sOkdzw7g+x5A6R3PDwwfAcIpIb3pAR94hQIJsk+hg4SIRCgOG5RQQxPMeIyFI2RvRzLbVjRIi9SIhw33ePCPGFhCgxPOeI5Ib34DlIJM/wBqGDRML3CD4V/XKQiCCZ4Ym6YWUmkmd4ItpSE8kNz0kiFPysGhEKlXdeKDsR4qo7UpWeSG54LhJlZHguEqka3rXfeoMsG1YzPBeIkKdieE4QyTM8J4lUDM8NIhXDc4QI8YzXuN0jQgF06L0zROAMz4G/sIfPgG2t5RAR0PDcuesQ8vtVI4IZnlNEqA4wPLeIPoc2VosIhZmGVxSR4Lsdqg6hISRri4+CiLigxAG+KXqkTMNrFzO5xRd0QDfqU3X4XE6kPgBRbwJSmP5IX324T2x4spdHMC5oApJgYFDK0kaApCttNK667my0tIs00xteF4qRWsXNRmMpixRudHdA8IQ33rw4opR7Rd3oDqLbdBN/1ZnCqD018fyL7eSZAemnPdRszLU+Un+yJT0ett+Ico5wp8vNWWgOiF5Y5pg+6geLr+XCq5/5d0UhlL02D2t1V0/a20TkmaeKGKXL+WzK6mbGaTNaZ9tZtztPPlF/bG0t3xRf4rM8v375eSzvUGCyreCk5epNw67exPJWxYhaFZz8j4dVCqTP3Rmqt4NGlXY5SRpm+51orrbfsEmR8LATDcYPldgtaD/yvKo7OuEK7rqFq7czWqKq7V6XqGo7DOIK7gKZOHnFdupM5M5uqmlPSf4fO97iCu5KjKu3c3Siqu3ujSu4AztOEqPShRPx7uVLDuVE5UuM6FI2ygJClNQZ5XHy75ohDxEedsNyhJMfdrOWC8CIPrcwv344kaAGWrMLIsK4ia7t5HwJXGUIJLp2YsQ4dCEonAgPZ1frGJFwlhVAf8fjv6pEcWI0vU5iVH95kJ/Y5K335+1t3futShQnRleoM/j5XoYXut2jxGC7iSpRnBgV7OTMk6Y8n0A/bv/9+L5TJorrjCI7RiSYy0ZD7bUbx1cp1nqM8dubOlGcGOXdwBIsOs1KeWKN18l9d4snv5Nr1ZtoECXL3opwckjKE+tj/O/G+5FcpHctItyy34D1vS7sHZjd7RfRuDeJI+lNjyiuM7ZWwwkUQHslHLe99XqXGB0eaxPFidHSnpPTPnwq+jq5Rr3x7e36I/7f+299omQ3IDvhxCgogL709v51101+TDD+8zcPER4uLJS4fgAMoC/d7g7OEBteT8e9j/XwYroBG2xhr7186+N3nC1M4h/if9bveYkwHhh9lMaR8rvnsdu9H+A+NHKGS0XG6gyFmuFE63WSd0/ed2/YCJGpBizxMmsGkcZ/ertd7+MzvzNBhHHHQGIUTDNqBrkmk68fzBAliVG+cOJ+9psuMJkiihOjHA1YRjNrBrCMESWJkWY4kRCc8gBkkChJjHTCifYBNQNcRol0FnoAawa4DBPhoVqdAa4Z4DJNFIcTvAFLPFibVEnmieB1BrhNqiQbRHGdASjbdVOeLNkhym7AAtqkmrJEFNcZ0gZsPV/KI5M1orjOED7PyG6T5pBFItyIUp3cz26T5pFNotQGLPHuDaY8KbJLdNmANZzypMg20WmdwdNfPDUq+0S4NWIBZ4zxgI1MpzwpKoAoVucp6kZPtu+3vYohKlLVI/oPvLDD1gwexmUAAAAASUVORK5CYII=;" parent="1" vertex="1">
          <mxGeometry x="-400" y="520" width="77.73" height="90" as="geometry" />
        </mxCell>
        <mxCell id="wemDOvCP56XmbDkSIcLU-60" style="edgeStyle=orthogonalEdgeStyle;rounded=0;orthogonalLoop=1;jettySize=auto;html=1;fontColor=#000000;" parent="1" source="wemDOvCP56XmbDkSIcLU-24" target="wemDOvCP56XmbDkSIcLU-59" edge="1">
          <mxGeometry relative="1" as="geometry" />
        </mxCell>
        <mxCell id="wemDOvCP56XmbDkSIcLU-24" value="MySQL" style="verticalLabelPosition=bottom;html=1;verticalAlign=top;align=center;strokeColor=none;fillColor=#00BEF2;shape=mxgraph.azure.mysql_database;fontColor=#000000;" parent="1" vertex="1">
          <mxGeometry x="-250" y="760" width="80" height="100" as="geometry" />
        </mxCell>
        <mxCell id="wemDOvCP56XmbDkSIcLU-26" value="" style="group" parent="1" vertex="1" connectable="0">
          <mxGeometry x="-280" y="430" width="140" height="270" as="geometry" />
        </mxCell>
        <mxCell id="wemDOvCP56XmbDkSIcLU-19" value="应用服务" style="rounded=0;whiteSpace=wrap;html=1;fontColor=#000000;verticalAlign=top;" parent="wemDOvCP56XmbDkSIcLU-26" vertex="1">
          <mxGeometry width="140" height="270" as="geometry" />
        </mxCell>
        <mxCell id="wemDOvCP56XmbDkSIcLU-8" value="" style="shape=image;html=1;verticalAlign=top;verticalLabelPosition=bottom;labelBackgroundColor=#ffffff;imageAspect=0;aspect=fixed;image=https://cdn4.iconfinder.com/data/icons/scripting-and-programming-languages/512/php-128.png" parent="wemDOvCP56XmbDkSIcLU-26" vertex="1">
          <mxGeometry x="28.079857397504455" y="24.048409090909097" width="81.8765192027224" height="81.8765192027224" as="geometry" />
        </mxCell>
        <mxCell id="wemDOvCP56XmbDkSIcLU-9" value="" style="shape=image;html=1;verticalAlign=top;verticalLabelPosition=bottom;labelBackgroundColor=#ffffff;imageAspect=0;aspect=fixed;image=https://cdn2.iconfinder.com/data/icons/boxicons-logos/24/bxl-go-lang-128.png" parent="wemDOvCP56XmbDkSIcLU-26" vertex="1">
          <mxGeometry x="19.824598930481283" y="83.56821428571429" width="89.83957219251337" height="89.83957219251337" as="geometry" />
        </mxCell>
        <mxCell id="wemDOvCP56XmbDkSIcLU-18" value="Java" style="shape=image;html=1;verticalAlign=top;verticalLabelPosition=bottom;labelBackgroundColor=#ffffff;imageAspect=0;aspect=fixed;image=https://cdn4.iconfinder.com/data/icons/scripting-and-programming-languages/512/1416364765_java_coffee_x_cup_application-2-128.png;fontColor=#000000;" parent="wemDOvCP56XmbDkSIcLU-26" vertex="1">
          <mxGeometry x="31.473796791443853" y="163.92857142857144" width="67.37967914438502" height="67.37967914438502" as="geometry" />
        </mxCell>
        <mxCell id="wemDOvCP56XmbDkSIcLU-27" value="" style="group" parent="1" vertex="1" connectable="0">
          <mxGeometry x="-280" y="48.75" width="140" height="340" as="geometry" />
        </mxCell>
        <mxCell id="wemDOvCP56XmbDkSIcLU-20" value="流量日志采集" style="rounded=0;whiteSpace=wrap;html=1;fontColor=#000000;verticalAlign=top;" parent="wemDOvCP56XmbDkSIcLU-27" vertex="1">
          <mxGeometry y="70" width="140" height="260" as="geometry" />
        </mxCell>
        <mxCell id="wemDOvCP56XmbDkSIcLU-3" value="FileBeat" style="shape=image;imageAspect=0;aspect=fixed;verticalLabelPosition=bottom;verticalAlign=top;image=https://encrypted-tbn0.gstatic.com/images?q=tbn:ANd9GcQ_mcrTSRtknpTX5GWD5KXlC9KHjejcsSZliQ&amp;usqp=CAU;" parent="wemDOvCP56XmbDkSIcLU-27" vertex="1">
          <mxGeometry x="32.25" y="105" width="75.5" height="75.5" as="geometry" />
        </mxCell>
        <mxCell id="wemDOvCP56XmbDkSIcLU-10" value="Lua" style="shape=image;imageAspect=0;aspect=fixed;verticalLabelPosition=bottom;verticalAlign=top;fontColor=#000066;image=https://gimg2.baidu.com/image_search/src=http%3A%2F%2Fbkimg.cdn.bcebos.com%2Fpic%2Fa686c9177f3e67090ae08a613bc79f3df9dc5548&amp;refer=http%3A%2F%2Fbkimg.cdn.bcebos.com&amp;app=2002&amp;size=f9999,10000&amp;q=a80&amp;n=0&amp;g=0n&amp;fmt=auto?sec=1650680429&amp;t=b3749c0d99cf637bab353e06d5a16bc4;" parent="wemDOvCP56XmbDkSIcLU-27" vertex="1">
          <mxGeometry x="27.75" y="225" width="80" height="80" as="geometry" />
        </mxCell>
        <mxCell id="wemDOvCP56XmbDkSIcLU-30" value="" style="group" parent="1" vertex="1" connectable="0">
          <mxGeometry x="-660" y="250" width="130" height="320" as="geometry" />
        </mxCell>
        <mxCell id="wemDOvCP56XmbDkSIcLU-28" value="设备" style="rounded=0;whiteSpace=wrap;html=1;fontColor=#000000;verticalAlign=top;" parent="wemDOvCP56XmbDkSIcLU-30" vertex="1">
          <mxGeometry width="130" height="320" as="geometry" />
        </mxCell>
        <mxCell id="tWKeSwH2M4YH6WwzVB8o-13" value="电脑" style="verticalLabelPosition=bottom;html=1;verticalAlign=top;align=center;strokeColor=none;fillColor=#00BEF2;shape=mxgraph.azure.laptop;pointerEvents=1;" parent="wemDOvCP56XmbDkSIcLU-30" vertex="1">
          <mxGeometry x="27.857142857142858" y="188.44050598290596" width="74.28571428571429" height="72.2051282051282" as="geometry" />
        </mxCell>
        <mxCell id="tWKeSwH2M4YH6WwzVB8o-15" value="&lt;font color=&quot;#000000&quot;&gt;手机&lt;/font&gt;" style="fontColor=#0066CC;verticalAlign=top;verticalLabelPosition=bottom;labelPosition=center;align=center;html=1;outlineConnect=0;fillColor=#CCCCCC;strokeColor=#6881B3;gradientColor=none;gradientDirection=north;strokeWidth=2;shape=mxgraph.networks.mobile;" parent="wemDOvCP56XmbDkSIcLU-30" vertex="1">
          <mxGeometry x="46.42857142857143" y="56.88932649572649" width="37.142857142857146" height="76.58119658119658" as="geometry" />
        </mxCell>
        <mxCell id="wemDOvCP56XmbDkSIcLU-33" style="edgeStyle=orthogonalEdgeStyle;rounded=0;orthogonalLoop=1;jettySize=auto;html=1;entryX=0;entryY=0.5;entryDx=0;entryDy=0;fontColor=#000000;" parent="1" source="wemDOvCP56XmbDkSIcLU-28" target="tWKeSwH2M4YH6WwzVB8o-3" edge="1">
          <mxGeometry relative="1" as="geometry" />
        </mxCell>
        <mxCell id="wemDOvCP56XmbDkSIcLU-34" style="edgeStyle=orthogonalEdgeStyle;rounded=0;orthogonalLoop=1;jettySize=auto;html=1;entryX=0;entryY=0.5;entryDx=0;entryDy=0;fontColor=#000000;" parent="1" source="wemDOvCP56XmbDkSIcLU-28" target="wemDOvCP56XmbDkSIcLU-7" edge="1">
          <mxGeometry relative="1" as="geometry" />
        </mxCell>
        <mxCell id="wemDOvCP56XmbDkSIcLU-39" style="edgeStyle=orthogonalEdgeStyle;rounded=0;orthogonalLoop=1;jettySize=auto;html=1;entryX=0;entryY=0.5;entryDx=0;entryDy=0;fontColor=#000000;" parent="1" source="wemDOvCP56XmbDkSIcLU-20" target="7sST46Or0EcZiHkfFLdd-1" edge="1">
          <mxGeometry relative="1" as="geometry" />
        </mxCell>
        <mxCell id="wemDOvCP56XmbDkSIcLU-41" style="edgeStyle=orthogonalEdgeStyle;rounded=0;orthogonalLoop=1;jettySize=auto;html=1;entryX=0;entryY=0.5;entryDx=0;entryDy=0;fontColor=#000000;" parent="1" source="wemDOvCP56XmbDkSIcLU-19" target="7sST46Or0EcZiHkfFLdd-1" edge="1">
          <mxGeometry relative="1" as="geometry" />
        </mxCell>
        <mxCell id="wemDOvCP56XmbDkSIcLU-43" style="edgeStyle=orthogonalEdgeStyle;rounded=0;orthogonalLoop=1;jettySize=auto;html=1;entryX=0.5;entryY=0;entryDx=0;entryDy=0;entryPerimeter=0;fontColor=#000000;" parent="1" source="wemDOvCP56XmbDkSIcLU-19" target="wemDOvCP56XmbDkSIcLU-24" edge="1">
          <mxGeometry relative="1" as="geometry" />
        </mxCell>
        <mxCell id="wemDOvCP56XmbDkSIcLU-61" style="edgeStyle=orthogonalEdgeStyle;rounded=0;orthogonalLoop=1;jettySize=auto;html=1;entryX=0.5;entryY=1;entryDx=0;entryDy=0;fontColor=#000000;" parent="1" source="wemDOvCP56XmbDkSIcLU-59" target="7sST46Or0EcZiHkfFLdd-1" edge="1">
          <mxGeometry relative="1" as="geometry" />
        </mxCell>
        <mxCell id="wemDOvCP56XmbDkSIcLU-59" value="Canal" style="shape=image;html=1;verticalAlign=top;verticalLabelPosition=bottom;labelBackgroundColor=#ffffff;imageAspect=0;aspect=fixed;image=https://cdn4.iconfinder.com/data/icons/scripting-and-programming-languages/512/1416364765_java_coffee_x_cup_application-2-128.png;fontColor=#000000;" parent="1" vertex="1">
          <mxGeometry x="-15.46" y="765" width="90" height="90" as="geometry" />
        </mxCell>
        <mxCell id="wemDOvCP56XmbDkSIcLU-75" value="" style="group" parent="1" vertex="1" connectable="0">
          <mxGeometry x="210" y="-20" width="410" height="290" as="geometry" />
        </mxCell>
        <mxCell id="wemDOvCP56XmbDkSIcLU-76" value="流量数据实时入湖&lt;br&gt;场景：埋点2.0、埋点3.0、App日志、等流量数据" style="rounded=0;whiteSpace=wrap;html=1;fontColor=#000000;verticalAlign=top;" parent="wemDOvCP56XmbDkSIcLU-75" vertex="1">
          <mxGeometry width="409.9999999999999" height="290" as="geometry" />
        </mxCell>
        <mxCell id="wemDOvCP56XmbDkSIcLU-77" value="Flink" style="shape=image;imageAspect=0;aspect=fixed;verticalLabelPosition=bottom;verticalAlign=top;shadow=1;sketch=0;strokeColor=#FFFFFF;image=https://flink.apache.org/img/logo/png/1000/flink_squirrel_1000.png;" parent="wemDOvCP56XmbDkSIcLU-75" vertex="1">
          <mxGeometry x="34.166666666666664" y="180.63" width="66.25" height="66.25" as="geometry" />
        </mxCell>
        <mxCell id="wemDOvCP56XmbDkSIcLU-79" style="edgeStyle=orthogonalEdgeStyle;rounded=0;orthogonalLoop=1;jettySize=auto;html=1;entryX=0;entryY=0.5;entryDx=0;entryDy=0;fontColor=#000000;" parent="wemDOvCP56XmbDkSIcLU-75" source="wemDOvCP56XmbDkSIcLU-77" target="wemDOvCP56XmbDkSIcLU-78" edge="1">
          <mxGeometry relative="1" as="geometry" />
        </mxCell>
        <mxCell id="wemDOvCP56XmbDkSIcLU-78" value="" style="shape=image;imageAspect=0;aspect=fixed;verticalLabelPosition=bottom;verticalAlign=top;shadow=1;sketch=1;fontSize=12;strokeColor=#FFFFFF;image=https://eng.uber.com/wp-content/uploads/2019/04/Facebook-1.png;" parent="wemDOvCP56XmbDkSIcLU-75" vertex="1">
          <mxGeometry x="267.5022222222222" y="185" width="109.52" height="57.5" as="geometry" />
        </mxCell>
        <mxCell id="zNEOuFTtf5db0waN-gQl-5" value="1.备份数据" style="text;html=1;align=center;verticalAlign=middle;resizable=0;points=[];autosize=1;strokeColor=none;fillColor=none;fontSize=12;fontColor=#000000;" vertex="1" parent="wemDOvCP56XmbDkSIcLU-75">
          <mxGeometry x="143.01027777777776" y="80" width="70" height="20" as="geometry" />
        </mxCell>
        <mxCell id="zNEOuFTtf5db0waN-gQl-6" value="3.解开Nginx数据" style="text;html=1;align=center;verticalAlign=middle;resizable=0;points=[];autosize=1;strokeColor=none;fillColor=none;fontSize=12;fontColor=#000000;" vertex="1" parent="wemDOvCP56XmbDkSIcLU-75">
          <mxGeometry x="125.92694444444442" y="193" width="100" height="20" as="geometry" />
        </mxCell>
        <mxCell id="zNEOuFTtf5db0waN-gQl-8" value="" style="shape=image;imageAspect=0;aspect=fixed;verticalLabelPosition=bottom;verticalAlign=top;fontSize=12;fontColor=#000000;image=https://img1.baidu.com/it/u=3046285866,542703465&amp;fm=253&amp;fmt=auto&amp;app=138&amp;f=JPEG?w=897&amp;h=500;" vertex="1" parent="wemDOvCP56XmbDkSIcLU-75">
          <mxGeometry x="23.42694444444444" y="74.75" width="102.21" height="57" as="geometry" />
        </mxCell>
        <mxCell id="zNEOuFTtf5db0waN-gQl-24" style="edgeStyle=orthogonalEdgeStyle;rounded=0;orthogonalLoop=1;jettySize=auto;html=1;fontSize=12;fontColor=#000000;" edge="1" parent="wemDOvCP56XmbDkSIcLU-75" source="zNEOuFTtf5db0waN-gQl-4" target="wemDOvCP56XmbDkSIcLU-78">
          <mxGeometry relative="1" as="geometry" />
        </mxCell>
        <mxCell id="zNEOuFTtf5db0waN-gQl-4" value="备份Hudi表" style="shape=image;imageAspect=0;aspect=fixed;verticalLabelPosition=bottom;verticalAlign=top;shadow=1;sketch=1;fontSize=12;strokeColor=#FFFFFF;image=https://eng.uber.com/wp-content/uploads/2019/04/Facebook-1.png;" vertex="1" parent="wemDOvCP56XmbDkSIcLU-75">
          <mxGeometry x="265.33833333333325" y="73.5" width="113.33" height="59.5" as="geometry" />
        </mxCell>
        <mxCell id="zNEOuFTtf5db0waN-gQl-11" style="edgeStyle=orthogonalEdgeStyle;rounded=0;orthogonalLoop=1;jettySize=auto;html=1;entryX=0;entryY=0.5;entryDx=0;entryDy=0;fontSize=12;fontColor=#000000;" edge="1" parent="wemDOvCP56XmbDkSIcLU-75" source="zNEOuFTtf5db0waN-gQl-8" target="zNEOuFTtf5db0waN-gQl-4">
          <mxGeometry relative="1" as="geometry" />
        </mxCell>
        <mxCell id="zNEOuFTtf5db0waN-gQl-25" value="质量校对" style="text;html=1;align=center;verticalAlign=middle;resizable=0;points=[];autosize=1;strokeColor=none;fillColor=none;fontSize=12;fontColor=#000000;" vertex="1" parent="wemDOvCP56XmbDkSIcLU-75">
          <mxGeometry x="265.3383333333333" y="150" width="60" height="20" as="geometry" />
        </mxCell>
        <mxCell id="zNEOuFTtf5db0waN-gQl-86" value="" style="endArrow=classic;html=1;rounded=0;fontSize=12;fontColor=#000000;exitX=1;exitY=0.5;exitDx=0;exitDy=0;entryX=0;entryY=0.5;entryDx=0;entryDy=0;" edge="1" parent="wemDOvCP56XmbDkSIcLU-75" source="wemDOvCP56XmbDkSIcLU-77" target="zNEOuFTtf5db0waN-gQl-4">
          <mxGeometry width="50" height="50" relative="1" as="geometry">
            <mxPoint x="520" y="-50" as="sourcePoint" />
            <mxPoint x="570" y="-100" as="targetPoint" />
          </mxGeometry>
        </mxCell>
        <mxCell id="zNEOuFTtf5db0waN-gQl-100" value="2.备份数据" style="text;html=1;align=center;verticalAlign=middle;resizable=0;points=[];autosize=1;strokeColor=none;fillColor=none;fontSize=12;fontColor=#000000;" vertex="1" parent="wemDOvCP56XmbDkSIcLU-75">
          <mxGeometry x="140.9302777777778" y="150" width="70" height="20" as="geometry" />
        </mxCell>
        <mxCell id="wemDOvCP56XmbDkSIcLU-91" value="S3" style="dashed=0;outlineConnect=0;html=1;align=center;labelPosition=center;verticalLabelPosition=bottom;verticalAlign=top;shape=mxgraph.weblogos.aws_s3;fontSize=12;fontColor=#000000;" parent="1" vertex="1">
          <mxGeometry x="910" y="400" width="110" height="110" as="geometry" />
        </mxCell>
        <mxCell id="zNEOuFTtf5db0waN-gQl-39" value="" style="group" vertex="1" connectable="0" parent="1">
          <mxGeometry x="210" y="310" width="410" height="290" as="geometry" />
        </mxCell>
        <mxCell id="zNEOuFTtf5db0waN-gQl-40" value="Json数据实时入湖&lt;br&gt;场景：广告、AI、通邮、等业务实时入湖" style="rounded=0;whiteSpace=wrap;html=1;fontColor=#000000;verticalAlign=top;" vertex="1" parent="zNEOuFTtf5db0waN-gQl-39">
          <mxGeometry width="409.99999999999994" height="290" as="geometry" />
        </mxCell>
        <mxCell id="zNEOuFTtf5db0waN-gQl-41" value="Flink" style="shape=image;imageAspect=0;aspect=fixed;verticalLabelPosition=bottom;verticalAlign=top;shadow=1;sketch=0;strokeColor=#FFFFFF;image=https://flink.apache.org/img/logo/png/1000/flink_squirrel_1000.png;" vertex="1" parent="zNEOuFTtf5db0waN-gQl-39">
          <mxGeometry x="34.166666666666664" y="180.63" width="66.25" height="66.25" as="geometry" />
        </mxCell>
        <mxCell id="zNEOuFTtf5db0waN-gQl-42" style="edgeStyle=orthogonalEdgeStyle;rounded=0;orthogonalLoop=1;jettySize=auto;html=1;entryX=0;entryY=0.5;entryDx=0;entryDy=0;fontColor=#000000;" edge="1" parent="zNEOuFTtf5db0waN-gQl-39" source="zNEOuFTtf5db0waN-gQl-41" target="zNEOuFTtf5db0waN-gQl-43">
          <mxGeometry relative="1" as="geometry" />
        </mxCell>
        <mxCell id="zNEOuFTtf5db0waN-gQl-43" value="" style="shape=image;imageAspect=0;aspect=fixed;verticalLabelPosition=bottom;verticalAlign=top;shadow=1;sketch=1;fontSize=12;strokeColor=#FFFFFF;image=https://eng.uber.com/wp-content/uploads/2019/04/Facebook-1.png;" vertex="1" parent="zNEOuFTtf5db0waN-gQl-39">
          <mxGeometry x="267.5022222222222" y="185" width="109.52" height="57.5" as="geometry" />
        </mxCell>
        <mxCell id="zNEOuFTtf5db0waN-gQl-44" value="1.备份数据" style="text;html=1;align=center;verticalAlign=middle;resizable=0;points=[];autosize=1;strokeColor=none;fillColor=none;fontSize=12;fontColor=#000000;" vertex="1" parent="zNEOuFTtf5db0waN-gQl-39">
          <mxGeometry x="143.01027777777776" y="80" width="70" height="20" as="geometry" />
        </mxCell>
        <mxCell id="zNEOuFTtf5db0waN-gQl-45" value="2.Json实时入湖" style="text;html=1;align=center;verticalAlign=middle;resizable=0;points=[];autosize=1;strokeColor=none;fillColor=none;fontSize=12;fontColor=#000000;" vertex="1" parent="zNEOuFTtf5db0waN-gQl-39">
          <mxGeometry x="125.92694444444443" y="193" width="100" height="20" as="geometry" />
        </mxCell>
        <mxCell id="zNEOuFTtf5db0waN-gQl-46" value="" style="shape=image;imageAspect=0;aspect=fixed;verticalLabelPosition=bottom;verticalAlign=top;fontSize=12;fontColor=#000000;image=https://img1.baidu.com/it/u=3046285866,542703465&amp;fm=253&amp;fmt=auto&amp;app=138&amp;f=JPEG?w=897&amp;h=500;" vertex="1" parent="zNEOuFTtf5db0waN-gQl-39">
          <mxGeometry x="23.426944444444445" y="74.75" width="102.21" height="57" as="geometry" />
        </mxCell>
        <mxCell id="zNEOuFTtf5db0waN-gQl-47" style="edgeStyle=orthogonalEdgeStyle;rounded=0;orthogonalLoop=1;jettySize=auto;html=1;fontSize=12;fontColor=#000000;" edge="1" parent="zNEOuFTtf5db0waN-gQl-39" source="zNEOuFTtf5db0waN-gQl-48" target="zNEOuFTtf5db0waN-gQl-43">
          <mxGeometry relative="1" as="geometry" />
        </mxCell>
        <mxCell id="zNEOuFTtf5db0waN-gQl-48" value="" style="shape=image;imageAspect=0;aspect=fixed;verticalLabelPosition=bottom;verticalAlign=top;shadow=1;sketch=1;fontSize=12;strokeColor=#FFFFFF;image=https://eng.uber.com/wp-content/uploads/2019/04/Facebook-1.png;" vertex="1" parent="zNEOuFTtf5db0waN-gQl-39">
          <mxGeometry x="265.33833333333325" y="73.5" width="113.33" height="59.5" as="geometry" />
        </mxCell>
        <mxCell id="zNEOuFTtf5db0waN-gQl-49" style="edgeStyle=orthogonalEdgeStyle;rounded=0;orthogonalLoop=1;jettySize=auto;html=1;entryX=0;entryY=0.5;entryDx=0;entryDy=0;fontSize=12;fontColor=#000000;" edge="1" parent="zNEOuFTtf5db0waN-gQl-39" source="zNEOuFTtf5db0waN-gQl-46" target="zNEOuFTtf5db0waN-gQl-48">
          <mxGeometry relative="1" as="geometry" />
        </mxCell>
        <mxCell id="zNEOuFTtf5db0waN-gQl-50" value="质量校对" style="text;html=1;align=center;verticalAlign=middle;resizable=0;points=[];autosize=1;strokeColor=none;fillColor=none;fontSize=12;fontColor=#000000;" vertex="1" parent="zNEOuFTtf5db0waN-gQl-39">
          <mxGeometry x="265.33833333333337" y="150" width="60" height="20" as="geometry" />
        </mxCell>
        <mxCell id="zNEOuFTtf5db0waN-gQl-51" value="" style="group" vertex="1" connectable="0" parent="1">
          <mxGeometry x="210" y="650" width="410" height="290" as="geometry" />
        </mxCell>
        <mxCell id="zNEOuFTtf5db0waN-gQl-52" value="数据库实时入湖&lt;br&gt;场景：MySQL、等数据库" style="rounded=0;whiteSpace=wrap;html=1;fontColor=#000000;verticalAlign=top;" vertex="1" parent="zNEOuFTtf5db0waN-gQl-51">
          <mxGeometry width="409.99999999999994" height="290" as="geometry" />
        </mxCell>
        <mxCell id="zNEOuFTtf5db0waN-gQl-53" value="Flink" style="shape=image;imageAspect=0;aspect=fixed;verticalLabelPosition=bottom;verticalAlign=top;shadow=1;sketch=0;strokeColor=#FFFFFF;image=https://flink.apache.org/img/logo/png/1000/flink_squirrel_1000.png;" vertex="1" parent="zNEOuFTtf5db0waN-gQl-51">
          <mxGeometry x="34.166666666666664" y="180.63" width="66.25" height="66.25" as="geometry" />
        </mxCell>
        <mxCell id="zNEOuFTtf5db0waN-gQl-54" style="edgeStyle=orthogonalEdgeStyle;rounded=0;orthogonalLoop=1;jettySize=auto;html=1;entryX=0;entryY=0.5;entryDx=0;entryDy=0;fontColor=#000000;" edge="1" parent="zNEOuFTtf5db0waN-gQl-51" source="zNEOuFTtf5db0waN-gQl-53" target="zNEOuFTtf5db0waN-gQl-55">
          <mxGeometry relative="1" as="geometry" />
        </mxCell>
        <mxCell id="zNEOuFTtf5db0waN-gQl-55" value="" style="shape=image;imageAspect=0;aspect=fixed;verticalLabelPosition=bottom;verticalAlign=top;shadow=1;sketch=1;fontSize=12;strokeColor=#FFFFFF;image=https://eng.uber.com/wp-content/uploads/2019/04/Facebook-1.png;" vertex="1" parent="zNEOuFTtf5db0waN-gQl-51">
          <mxGeometry x="267.5022222222222" y="185" width="109.52" height="57.5" as="geometry" />
        </mxCell>
        <mxCell id="zNEOuFTtf5db0waN-gQl-56" value="1.备份数据" style="text;html=1;align=center;verticalAlign=middle;resizable=0;points=[];autosize=1;strokeColor=none;fillColor=none;fontSize=12;fontColor=#000000;" vertex="1" parent="zNEOuFTtf5db0waN-gQl-51">
          <mxGeometry x="143.01027777777776" y="80" width="70" height="20" as="geometry" />
        </mxCell>
        <mxCell id="zNEOuFTtf5db0waN-gQl-57" value="2.Json实时入湖" style="text;html=1;align=center;verticalAlign=middle;resizable=0;points=[];autosize=1;strokeColor=none;fillColor=none;fontSize=12;fontColor=#000000;" vertex="1" parent="zNEOuFTtf5db0waN-gQl-51">
          <mxGeometry x="125.92694444444443" y="193" width="100" height="20" as="geometry" />
        </mxCell>
        <mxCell id="zNEOuFTtf5db0waN-gQl-58" value="" style="shape=image;imageAspect=0;aspect=fixed;verticalLabelPosition=bottom;verticalAlign=top;fontSize=12;fontColor=#000000;image=https://img1.baidu.com/it/u=3046285866,542703465&amp;fm=253&amp;fmt=auto&amp;app=138&amp;f=JPEG?w=897&amp;h=500;" vertex="1" parent="zNEOuFTtf5db0waN-gQl-51">
          <mxGeometry x="23.426944444444445" y="74.75" width="102.21" height="57" as="geometry" />
        </mxCell>
        <mxCell id="zNEOuFTtf5db0waN-gQl-59" style="edgeStyle=orthogonalEdgeStyle;rounded=0;orthogonalLoop=1;jettySize=auto;html=1;fontSize=12;fontColor=#000000;" edge="1" parent="zNEOuFTtf5db0waN-gQl-51" target="zNEOuFTtf5db0waN-gQl-55">
          <mxGeometry relative="1" as="geometry">
            <mxPoint x="322" y="133.00000000000045" as="sourcePoint" />
          </mxGeometry>
        </mxCell>
        <mxCell id="zNEOuFTtf5db0waN-gQl-61" style="edgeStyle=orthogonalEdgeStyle;rounded=0;orthogonalLoop=1;jettySize=auto;html=1;entryX=0;entryY=0.5;entryDx=0;entryDy=0;fontSize=12;fontColor=#000000;" edge="1" parent="zNEOuFTtf5db0waN-gQl-51" source="zNEOuFTtf5db0waN-gQl-58" target="zNEOuFTtf5db0waN-gQl-79">
          <mxGeometry relative="1" as="geometry">
            <mxPoint x="265.33833333333314" y="103.25" as="targetPoint" />
          </mxGeometry>
        </mxCell>
        <mxCell id="zNEOuFTtf5db0waN-gQl-62" value="质量校对" style="text;html=1;align=center;verticalAlign=middle;resizable=0;points=[];autosize=1;strokeColor=none;fillColor=none;fontSize=12;fontColor=#000000;" vertex="1" parent="zNEOuFTtf5db0waN-gQl-51">
          <mxGeometry x="265.33833333333337" y="150" width="60" height="20" as="geometry" />
        </mxCell>
        <mxCell id="zNEOuFTtf5db0waN-gQl-79" value="" style="shape=image;verticalLabelPosition=bottom;labelBackgroundColor=default;verticalAlign=top;aspect=fixed;imageAspect=0;image=data:image/png,iVBORw0KGgoAAAANSUhEUgAAAKgAAACXCAYAAACBZxDMAAAgAElEQVR4nOy9eZwlV3Xn+T33xvLW3DMrK7NW1a6SSgtakGQJCbSA2LGxDW5sY5a2+4PtHu8ftzHyZ6bbdk+3MdjY4/GALTBbA8YGgQGBJLQLqaTSVqWSal8zq7Iq97dExL1n/oh4mVUCzyAbAWlzPp/I916+JSJu/OLcs/zOuaKqyosqHlBAFrbODgXw3uNcRrvVpNls0247bGAJAksUhVhrsDbAGLOwiRjEgOCLX+GMx+eLFn8X35fv8P7Z8s/91o/k+y3Bi74HbYJvgYnwGuKJAAMCopAlLSbGj/DpT32MO+7czlyjQhRburrKDC/vZ9XqUZaPDLNy5SqWDY3Q3dVLvd5DqSyIbQAGIUDVoGoQBJEcYGIUrxkigmqAehDJNyS/VXKQO3KgdmBcHOOP5AcuLzpA1UWIlPAZYG2uNRWcg7SdMH5sjA++//3805duY3p2lrb3GAvGeIIQ4jikXK7Q091PT/cA/f3LWb1yHStWjrJm3TAb1m+ku7ufaqVOqVTGewgCUAXvHIiiqqiA2OKYFHK0aqHPO9q9o+t/pEF/WERe9Cm+UFDtFIIYEHAKjUaL40eP8Fd/8SFu/Zu/oV6p4pik3N2mp7ebSjkmzRKmpqZJ2o40gXYLXGqxtkQYVujq6Wfr1vN5ycWXcPHFl3LO2nOod3VRLpeJ4iAHeWDw6nKAGlkAYAeCBtsZCjog/RE8f3jk+wJQ7wEDqQfFo5pycmKMP/7D/8rHbv1bNE3ZvGkzr3z1Nq66dpSR5SPUu+qkqeP06WkmT89y+OAJnt19kP17j7Nv72EOHZ5heg5AiKMyPT19bNywicsvv5wrrriCyy67jN6+bsLQ4tVhgwwFvCpGAsCgKlgJv31QXtQB+ZG8EHnRAepJyXyCNQGNVhOAQwf38/73/xFf+crfUy4r11xzCb/0i7/AyEiFru4MVEmzFBSCIMI5Q5ZCu6m0mp5Tp6Y5cuQ0O585wTfvvpe9ew4wMz2Pd4ZSqUalXGfZshGueOlVXHPNy7jggguod1fp6u7C2hBVELH543cwNX8E0B8eeVEAeuZPOpkl1QZWSjQbGXuf3cfffOQjfO5zH2NgKOANb3oZb/2ZG+kfiKlVIsSDtYL3Du8dIoKIAQyoRSR3dloJzDQsY8dOsPuZfTz11G6eeuI59u09xumJOdotiKMag4PL2Xb+Rbz0ih/jggsuYuOmzXT39BIGFmOLn10YDUA8BvmOzn3H+fpej9F3+t3O+7mDl9vR+Vj8+7p9vqcA/U4/lck0bT+H8WWOHprgf/7xn/KFz3+eIGzy9ne+jre/45UMDCeYaBZxITbrzt17HEhhwErHy2bh0SO0vQW1WFvGZyGHDpxg51MHuOfu7XzzzocZPz5D0gaXGaKwj7VrN3DtdS/nx3/8zWzesoVSKUICsCHkmEzJNCEgwpzhxRuTP/9egaMzTqpKlmUEQbAYeSgA+Z2+8yOA/ivFe5//aDGIqooTR7PVYn62yS2/9wd86R+/QLs5zatedQW//TvvYM36CrZ8isyfJgrqkHSfDUxxQHbGcw94vCjOgGBxzqAuRF1EloR4V+Lk+DwP3LeDu+68n8ce3cnxI80cqHGFDes389Nv/Q9cf9NNrF6ziqgU4khBMqwRxFuM5KDpnBMsAvVfIx1QdmK6Z2rKzv689wv/f/4+8zjwvx+Qfs8AeuY05L1fGMR2ajh+/AR//sH/k89/7lYacyfZsK7O//5//BqXXLKeqJwQxClJ2sDaKuqrdGKSZ2tSf8ZzRUXxknvj6kHVYE2MdwHqQ7wLmZ/LODUxw4F9x9jx6B7uv387z+7ez9R0m/6BUTZtOp+XXXs911x7LSvXrKKru44YwarFkGuyDkC89wTBvy4q1wHfmQA7U3MCOOe+7Xtnfubfmxb9ngLUe3+WVvDeM3Z8nk988lP88X//TbJ0ltFR+OVfvpS3ve1myuXOdBYRBBVabQFb7RzaP7cnFjJTEuB8mgfei4yVMQHWhHgP7bbDEGJMRLvpGTs+yR13PMBtX7qbvXvGmZsDkQpbtl7Eza9+LdffcCP9g4P0VKvEUbRww1lrzwLrv1Scc6RpSqvVIkkSWq0WaZou7KfzGIbhWVsURURR9COA/mulo0U7Mj09zf/1lx/nAx/8E05P7afeAz/7c/DLv/py+vshtAGidZJWF+V4OY4qElTIszi5U4QGi88x5MaiAAbvIxBHECoqCaptwOE1w5iORvJYY8nSBGsrOFdhdtryjW88xm1fvI+77nqUiYkWtVo/56zfxM2vfg1veM0r2bD+HLq6uhbOxXuPtZZ/jczOzrJv3z4ef/xxdu/ezf79+zl27BitVgtVJQgCyuUyg4ODLFu2jJGREVavXs2mTZtYvXo19Xoda+2/U4B2ZpYzEysmA5ooHiEGX0L94vvOAxYQxdEg0zlCCXHOMDft+fQnvsiH/vSvOX50F2pO84Y3w//266tZsXKaciiIr4LGeElR6xHKWO3BmjrW9GPMIMIgmH7wNZwv4zXEqcFLigunUbWIWoxYjAElA80Qk2tUQUANkoUoBpU8Fjo3l3J6ssUjjzzLx//uy+zYcYB2MyQOe1m+bA0vu/Y6Xv3qG3nJJRdQq8UYowTGFunUPJKwYIUIYFIwKSohzoX5MBpIXUKzOc6DD93FP3726+x4aD/zjX2UKuN0dWcMDuWp18lTMHYcpqcgaZeBGnFsqXXVKZX7OGfdBdz82ldxzcvPZ2CoSjnqRlwZNAVpYE13cUW/X9D5/sgZGtSDmrNmUAAtnBTvBCMR3uU5bjHgNc9kY8FpC6UFTjkxdoqvfukO/uLPPsyxQ0cwcozLr4Zf/51hNm2eo7s2h6QhaCnfs53HGw8+xLgaIiXE1EC6UXqxdgjoB/oQ6UGkijcBbU1ABNEiNyQW0Y7HrcUNloIqJu0uzidDTQooqRNaLeG5Z09wxze2c/c3d7Bn91EajRIQsWHDBm6++VVcd921bFi/nv6+AfIAfz5G3oFRjwQp2AQQnI9RzYP/c40Whw8/zWc/+2G+effXmJ3dS38fnLe1zHnndTE6Cn29GapKY94wPibsfq7Nk0/OcPAApA3DDTe+hsmZjD37TjLfUi5/6RW89nWv4eKLL6Qcx4RWsMZgTe07XN3vOV6+71IANAXGyVPztXzzhfPhKdKEkGYJYhxGE2xggADFAhFeIUuhMTPL5z7zKf7yQx/gwP49xFGby66E9/zGGi66dJpKaRLfhIgagkElxds2HptfWLWAQ8XhBBSLUsdIH1aGCOwyrO1FGMD5lYgpvHtVvLegMUYKsodpo7RQMqzrLW48h0pWOFsG5wXVGOdiDuwf57YvfpXbv76DXbuOMj8HgYm4+qob+Pmfezc33vhqwtAiFoIwv3mNzABt0BjVCuojVIV2O2X7I/fwtx/5AHfc8QW2nreMG1+nXPayE6xZWaMaWywOTVNEYjIXga3hqHN0bIq9zzV49vEyr3/dO6l1j7Dn4Bh/8Rf/wMP3n2LZ0FZ++T+/kxtedSG1ap3I9J6Rsu1c2e8jil5EKQDqgRb5WQWgIXjIspzUYUNQ08Yxhdg5Yh3KP2NS0AzViKQVMn5klk/+3Sf41Cf+hqNHnwFtcs1N8J7fDLnoomUIxwjFYzKwGoGvoYR44/CmAaaJmg49roh4aoDzBiVEJMaYEGMs0IdhG9b0EUgfhm6QEK8pHpfPm1rDuyqqASaYKMJU5OepBiFEJMJlFpflN5zLYN/h43z1a/dy+1ce4Oknx2i3ygwNruOtb3kHb/qJN7LmnBGiMqi0EfUYypCFOfnPJCTJGA8/uIMP/clfsefZh3jla3r5qV+oMDRykEp5GvH5zFyyJSLTReZKBEEX2ArzqdJKHZ6MIGwQ6lVYsx5PL2MTDf78g1/nH/9+F8Ys5zd+51289vU3MDDQT2Rq/1YweZbkAC2iOYuUzTaqlvn5NseOTbBz105m5sYZHqkzsrKLOFtNlhqSbJbJqQkO7h/nyKFTPP7obh7dfgfzzd3YCG54Jbzt5/vYsqVFT20AdVOEdh6Dyy8SFiXAI6hp403OOlpAp0b5Jp1/ZmASEI9qFe/WYk2IsRWs7cIyANoP2gt0g5SBAC+KN/PFKXccLot6g4gFBO8VU+wnyZTJySZHD89wzzef5p++/CD79p7C2C4uuOhibnrVK7nm2qsYWTFMHFcIbQWXglGYmWqx86kH+MAHfo1mcwevfFWdm27uY2DZBHHYxnjBGo+oYsSimUVMF0o3JhjAxIN4V6btTuDMA0h2HrHdRpatROIents7w4c+9CU+86ldjI6cxzve/XZ+/CdfxbK+YQL74rMnv9+yCNCMBYCqmWZycpIdjz3FJz7+ee65+0HSrEVvX5V160cxvpe52QZzjSnm55tMnGwyPdmiOd8mLB1mYER55evh7e9ew+jAFAM1T9aKiAPI0imszTBFNlELp1wpAkUColJ48B0vPqfFiTiQ3H5UDXCUUFJUBKWK6BCRXY01KxAGEFPNU6PGklBFCRbBqbawWz3OtcE4gkDxPsX4GCsVWk3IXJknnzjA5z//dW7/+kNMnGpQqw9w2eVX8eaffAvbLryA7u4eojCkMQ0P3/8wf/WhP2R6/uu87R3wmteX6elqom2IpI7LyohpIjTwuJx4bUo4V8f5fsJwNWG4HLFt2u17STNBdZhyfD6ZH0aDOvsPNXjvf/kU99w5wbLhDfzab/4Kb3zdzdRqFawNiov4vU3N/qBk0UlSgITMzaLa4MMfvpUP/9Xf8eSOvQgVPILkfjAazuIk53V6B+IrCFWEjO7BSd76DsO7/vMog8uOEaWOisttWaNgEVy7QhQEOJ0GCzaANAlwvoxIhEgLTAvE5QTjjrfsbe75+xJqEnw0lYPcG9T14YlyE0EEbBnLKAEjwAp8uBmlnEO9cKQQD5KhNFFpoSZByIjSXoyWOtcZlYj5JuzYsZePfuyL3HXn4xw70qa/b4Qbbv4x3vDjr+K8rdv41Mc+x+c+/bck7WP87i2DXPeKlHptiroFP9eH+hrOAmYG7FR+/wG+2I9z3WTpckrxKqrhKDTrzKT/hMQzqPZTDq9D7HJaWcTBI9P87m9/irvvHGPZwPn8yZ++lyuvuoyuencxJoqIKQB7hpzhAC8FWbBBk3QKI5ZWw/HAvY/wu7/z2+zbu4ssbdPVDQNDEMU50NrtnN/ZznLHqNWCVgPwAUGY0d0LWy+A629axZWXRqxeOUt3XxOvMxgBcRGuVSGQoNCKDWzowXgy7zjrxj8ToAqiQa5V1eJFUDuPii7arBKhGuE0LL5k8NRQcyFiurG2SmC7MdKFUsW7GIhzxj0WRYi8YnBgUjxtVJTMG5IkZGba8uwzE3zqE1/jzjseppV6+vpWEJtRxsafZHT1GL/8G6u4+uUJtXiKIGvTFXaRNmcwQZmMGCRBTRM1vgh75efptYR3VYKgm5LZSNS8ns9+8Y9YuwXWn9tFltaoll6C6CasXcGOx4/yh3/4Ue664xm2bL2I//bf/ogLL7yISqWCMQGoFPZ6IWfW2iwRCSA/bhsGuHbIscMn+eu//AxHDh7DSJsNm+F1bxxi6/l9RHEDaxI0rdFuOxrJHLONOU6cbHLyJEyMZ8xOwdQEHN8Ln/nwIR65A7ZtgwsuXs7ompCu3ml6+zKCUgIK6hRrAsQ0Cq7mGUfXmfcpYvMCSB7nVGyeFvUxmBTBFVUaCUiCxaDGIwJGTpOkDfBVVCt434uaQWAAwxDQB9qN+moeSTAJKg4togmKwxihFAulwRKVeJS1q36ea6+5iK/e/i0eenAvh47sJMtOsfaciLkZ5cTxhHA4JggtqQNsHu/FtPOTkjPYTMWjlRZiE9BZEldC4nnm5lfxmU8+ys1vNKw7dxZJn6IaVRC3jM0bRnnXO1/J3NwxnnjiKT7xiY8xtGyQdeesB/TsKf5Frjx7scTecssttwAkqWNuGm77hzv467/8G7weY+Va5S0/V+YX/uNa1m08yZpzpli5usGm9fNs3DjNuVsbXHyJ49IrhateZrnuhiqXXVbjyiuWsXVLL5HMc/SI55Fvwb13zXFgfxOvnt7BiCDKENvAaxuRFGPINSTFpiBqi1hpmFcLiV+0WaVAr9g8okCI4DCSgzw3R3LMWoVQG4QyjdEJ8GN4dxqfTYObA21itI01KYEkeJPhjUfF5zFPDIIlsCHqHaVY6OuL2bJlhIsv2caqVSOMje+lOT/H6RMtnnhkhulTTUqRZdlwN2JaqC8RhpJ7/gs1UbnZI5rnO/JjVaw6vKYklS5q0ZV86R+eZMf2Cc57iafe0yJN54kYxfgqo6M9DI+GPPjQMXbt2ksURlx66WVYGxT1WUX27UxZQhq0AKgits2OHY/zgT/9nxw9spOegYS3/HyNt759JbWefYhOUQ5TImuJsxZB5rCZokmEdSGRCKVSk4GBFsuXT7NhyyzX3lDjpp+scskrhMER4chBuPd25a7bHMb30dtXpn9IQTJ8EkBWw7guxOdxTBVFbTvXmuKLadyihIAFUzhNNi20qBZaNwBXBl9CXAXjYiLvCLwnUAjVY5gDJvE6htdDeHMAb/ZA8CxeaiilPA+lIUIJiPEpGAPWpqTZKcRMEdfm2Xx+N9ddv5H+/goTxxsc22d5ZnvIY/fPMXaozfBoNwPDGaozBOSAND7AuAjjS1gtYVyEzQICF2C9xREwIQ16q5cxPb6ML/6vR2kmGes3J9R6plHfohysIjAllo8ME4QbeXrnXrZv387mzZsZGlpGqVxe+gB93/ved0uWOWbnMj750c9y51f/nko8w5veDG97ez+Dy04i0iAUIAXr3EJ6Tw1gBBGPGI/BY4DAQBR6AtsiMDG99SobNggvuXiADRsN9XqLpx5r8OSjTeZmatR7epFyGwkcQohaT0YCgUOL0FPHkVAMqhbF4BRU/GL0YWHL87GCzTMMIiCNhc94LLl1k7M+jSYYP4/xU4ibAD+O8YcJdJyQBgGeUEMsZYQI7wOMjVEJCQRKoVCphJx77ibOPW8r1a5ejo1PMX56jt17UnY9O49nhN7BYcrd8zjJEIGACDKw0saQgChKCW8yMBllHxC4LqK4l8efPshjj80yvLzE5k19WHsA4ypEQQUjEaOr1zE9PcnuZ/Zy7OgMl11+NbV6NybwpK6BmHzs0KIea4mA1P7+7//+LWnqeO65Y/zdRz7K8YOPsm0b/Oqv11m3voEJGvlF9BHWx1hJ8Ybci++AQTp57+dN0YBNewm1RLkyxuDQDGvXZ6zfVGX9OVs4OT7PnXfNcGp6jq7+gCiOMJJT6XJgutwuzUOVhRnVAVweisrH2S8OejF1yhn8UZUMbx3OghNBCVCxSM6dx5BhpIXRJqJNcCcQfwLjJkFnwc/hfRNjMjAeMVJkviwhEUFR0hzGActXDnDuResYXj3AoWNHGDs5yYGDsP2RSdREnLOxCxulGOOw4vBpm8B4RBQVjxeLs21EMiotQUUpdXdB1M8dX9uHTxO2bOpiePkJ1EFgYoKgTlSLGRxcxpFDJ7nrzh0sX76GDZs2EJYEax2ZTwvHyRY9BZaG2Pe97323JEnCp//XZ/jKbZ+jVJrm3e+xXHnlSoKwgZgkx4OPMT7CmNYLsrfFV7FSw1DF+dxJqHQlDKwe59KrlUuvLHFkX8rdX3Ec2ZdQ72rT3z9EHJUJgujb6ixz5a2I5olWowFGI4y3GNyC3Zkrd8WIQ4q06YIWNh41GVpoKkyhqU0xK2Q18CWcNsnkBIkeJGUPzh4AewJj5whsRiBgtYJmZYwtYQKLlyaVrowt5w1x4cVrSZI5nnz8GPMzsPupWQ7tm2breWvp6fc4nadULvanJdQ4fNBGTREBcwk+VqRUZf2Gyzl+xPDkY3sIg2kuv7K6UAEgNsZGNXq6hxgcWMl99+xg3/6DbNq8iRUrRogCUyQiAoyxS6ri3/7e7/3eLacnT/PBD/45Y8ce5SWXeN7z60OIzhGFeZAck2FcKbebTPOFAdS0wEwhMoOVGuKraBaQJW1Qj7Ep529bzkUvGcaa0zy7C44emaFWzWlyYRjmEVivhVYWjBiseEQzhAzBIRpgKOX2qzeI6oIaV8DZxUjAQkSARedW1RThqxBxXbmDYdqInUNMCzHzOD+Bc1PgZzDaxEoTTN4swmVJbp8GitJEgnlqtYCLL76Q1StWsOvJ/czPJBzYpzz5xClGRsuMroxw2s5tXJHcw5f8PA0QWkjtHC2XIkGdLeuvZs/OZ9n15CTnb6vT1d8CO03imqiEhEFMvdpLOe7lrrvuAyyXXnoZYRwS2AAreZIClpAG/a3f+q1bHnn4EW79yK3U6hP81Fu7ueyqGSIT5AQEAUw7L4NAMKb9ggAahrm37bwi6grGVEgYlBAV4thg7CyVWsKK0UGWDZRxbp6TEwneNwkCRxBYTEHUtcZibYA1ZYzrRiTMPfkzbNQ8vRmgKEpuo/oF+2vRFIGzIwaiAYItGj2kOUDFF2ZAobl9ClkLdXPgJsncNJgWxiaoz9OXInlwPI7KxFGZDRs3smyon2NjJzk+PsXYUTh0sElfX4nlK0PEOMTm2SwBxJv8eKyn7cHG0Gx6BntXIVk32x/agXdNNl1giGtzOG1hbAnBEoYVVoxs5LHHnmHfvkOsWnUOq1etxhTtg/JzPrMzwA+32Pe85z23/OM/foF77riHrRc2eNsvDDA4NEVkg3xOBDBtTJFqNIU3/d2KaJFFEjDWobQxktcQ5YQNj9gUkYTQKvV6P6MruujpdczOJZyecnR1eazNIZLzPgMM3RjdiJEqKlFeECIOL1JsAZ4QL3m7HfFljIY5d1Tzljem0FSiFP+TIrbfANsG8Rg1OXB9iPExxhsMKaKzqE6QMkFbT4LMY02QRw58DXE1REuAoVI1rFnXzYo1Q+w7MMbxg4bxI22e2dli+Qph2agSlpI8PObB+BJCSKYpQQyZd1hrCKynp76Ofc/O8Ngj41x9Y42uvhbGtnBOsTYkDqv0dI1QKfdz333bGRs7zdU/9jKq1SrG5NWyRuzSAejP/MzP3HLr397KsYNHuP7VTV5+Y0I1dhjv6PQtUiJEEkQ81ncyNt/dDkQFKXomKR1EpGCbiG0hkhVOWOEJmXmQeaLY0dtnGBw0xJFFTOHSqOCdkDlPZtqI7cWadVi2gq5EpYILUlI7RWoSsoKQEspMHlWwac7hVLAGjCd3NiTC+BDjIzRo52lIKbSNlvN0ro+wAoFJMaaFSIoz8zg5hfeTqKYExhJIF8b3oK6CMSEStAjiaYZGulm/6Vzuv/dxZk6XODXe4oknUjac61ixWijFkM4LsannM02Y4R25YyMOb05QKQ8TB6v5zCe289KrB1i23GNtgk/bGLVYKROGA5Tifo4dneT22+/h0kuvYPnyEYyxReJiCQH0TW960y1//9nPkbVmufE1CZddmRJ6CEVQn+UxSF/Ng+miGD3bhvtuRAteZ0G/X3TxFz4AIIgUbCWTIibDWIcpskFCkWMvJmgVcJKR6Qwpp1E7gwkCgmCAQFZjWYsxfYiNEOsIFdQL6i2IxavmjRuK35IipqrSxlnwRYQqP9Y0563ShoJfShFIwICxijVtnJshc/OgKYGJcqaUCJ4MbIYxZQYHVjI0HPLcs3uZONli5rRjZAWcu7Wfaq1JKBCQM/cz8agvI2owtFEzQxQOUi6v5d67DlHvbnDu1n7KlUlC41FvMVIhMN1E8QDtVsCDDz7B7Gyb886/gN6+XhBdWgB9xSteccuXv3wboczz6jcGnLctxbQgthGqRfpQY4R0YVp8YQC1eXC945zAYizq+dLxDuT5n+kAupNqyvmBatpgpsCcxjFB5ubw3mLoIrKDxOEAoRkgkD4C7UV0AOf68NqHajfOlci8ybNG1kFBnsoU8jhpfjOpAZ/PvYs3l5qCOiPFDeRR30KZBW0hVjGBQazFYfHeYqULl8I5m0LaSYMdj+6hNdNPpdLmpVeuYGDoFLEFTRWwJCbDuHJhijTz7JmtImaIY0cCjh9/lnPP7aW3/zRWNS8QpIKRLozpJbC9PPPMEbY/+hRbt25jxYqVBGGANUsIoBdeeOEtt3/ty/R1Jdz8uiqbNyu0DQEhSpb7NJLH6TrpQ30h2lPreK2ipoXaLM87dr6vOQMegkJD6iJ7iedvmjss4hHJco2uWa6XVTBqsMEU3h7GmadwHECSYYLW5dj2DYhZjQnOxcpmjFmPsSsRO4iNu/GB0KZJQkpqADcCbgj1FZSww+Eicz4nlWgpPydXBcKCyJJhAzA2xTOFYxYJPDYIClJKDVyZyBrK1Ul6e6vsefYwe55pItrg4ksGWbOhiSXFOIOYgLZtEviQgAwrKQokPkZNF9X6KN/42rfYtq2blStbWM0wRPgsIrA9GNuHUqfRsHzhC7fT3T3AFVf9GOVqBbuENGjQbrcxhbeQpR6yMtY0cJnBBBFKnivHx+AjMM0XtAO1M2cD2kvBycxFJAVxiywwD2dE5Rc158IXinC9QqBV1CV4zfKbyQV5bbzmZccp9+Ps40jYR9tsIwj6sWGNQPo5dSJm8lQZa9Zi7EVkbgavDVQTSI+gOo1XBeOxVgjCiDjOnQwUrLXEYUQct4ljRyBl1Hl8EfZynCRxe3ESYUwdY+qgTUpRxsxcwJoVm3nrz/wE37rvz2m04dDh41gp4/08FvA+gwiMb2C1iCS4HpAYL/NsOL9EqQonTkyQZ8RMUXOfkaQzlKM25RJs2rSWWq3M/Q/cx/ZHtnPDTTfyAqa/H7gEzjmyTGnOw+xci7arEEkZMWFeu0MHIzmE/As8t06IBuhEyYu7t0NVWuzc0Xn/LFH9juOpCi7LzrBnO3l4j5HcdlUzg+comQfHND4dIDCDYEaAkCR1TE/B6VNNTkycYmp6mrm5Oeann6M5f5pGE9I0786nAnG5qGQ1eU1SpfyL/PoAACAASURBVAxrV8GWjd2sWl1jZKRMEJ8mKM2gmSFx4xijlG2ZQEcRU6KdnqJSrdJul9h6/ha2XjDEzkcPc2DfNI1WSD3MjVshI1AQkxW2cwl8lSBs0Ww/R293P9s2r+Xk2CGclrA+RNUhYQPHBN4pNjQMDAcMDPVw9MgBvvylL3Ldy67HxgYxSwOkQalUQjA05j2T0wmJVlEtYUKDd7OdquKc2SMZXhaU2HclC1zOBXEs1jgXcub74vn/lOKzKuDC9vPezIpt8bOdrFKgu3DeolkPXpbT17OKvt4RUjdIq7WMdrKJmbmMiVOzzExcy9jReQ4dPMXRI7McH59i4vQkJ06doJk0aCUJzXaKc9BbgeHBabacP81PvHktl10xSD1O8K6MRFM49uAJCN1LQGrYKMRpG2O7qHdXuPq6rTz7WJvjR04wPZdS76mgJFiTEWX5eWYqqK+jBFg5Sb2cYbO9nLfuXA6fmCTJEgIfobZFpqexpTLOxUgQEVUnCQKlMTfNjkceZvbUPNFw95JpIB2Mjo7S09NLMnOKsWOQJb1YewqnEJgCSAoLDRRIfoCH+y8VwboKRgWnLTwHaWXjOZGZHkQGqZSHqNcHWDlSx/hhXBaTOUGxZN7RStscGx/j4JGTnBhvcPjQNI88/Ax7nznCoYMJx4/DU4/t561vgze/ZTXdfaeJBISAZvMokdmXm0lpNecISJuubs8rbtrC5z/2KKcmYGq8xGAZosggxublClAER5vgQxRHGArt+Qk2b13PnINmM6EcxSze6baoHLAkCbTbKXFcYcuW86jXu4raq6UhwapVq+jvH+Do1CkO7YPJiQqjq8ZxaRMri6GYPEG82DB7KYnkjD6M8ViboZLgmMPrJM6PofYwaBf4HoztwksvNu4ltn1YGUC1SuoqdFXXsXrkHJwvMTvreNmVx9nx2Dhf+uI9PP7ooxxvwWc+DvXaFD/5cxE+U0JrUZ1GeQrREuK3YE2cp0PtHOs2drF56wCH9p/g8HO9rF05R0aCOs3H3BRsLdMgLyLM8M7jOU3/8tMsO6UkzQyNiuoELKoREJC0YezoNCdOnGZwcDXXv+KmHPxL6AKa4eFh1q1bD8Zy+CDsfS5FAgfW56lCH+d3o3gUv1DgtrREEZMi0kYkz9hYUQKTUYqalMIJwmA/ok/i0ofJeIRMn8DrfpCZPA6Z1Qj9EGWznMak8PRjz3HfXfdz+PA4y1dsIYpX0JiPObwfPvm30xw7qrgsBgcBHp/twvmnMXKaECGQPHZarxsuu2IzgQnYucOgBDg8TgUlWjwF4/OMnjGgShDOQvQsy1d4JHerFrkHWkY1IG0L+/aeoNFI2bT5PC6//Co6NXVLRYKRkRGuve467r/7TsaON9j55CxX3uCIbE6gUGKQNiopC0u5dHycpSICGiWoFr6ePyNv70DxGKOYIMVrSpsG3mWo1gmtgtbJWr0cOdLiwYce5atf+wb33HcfE6eVBHBaxmiN0PbQaCYceG6Kb359kh9/cz9xbT6n5AXjJOmTiA4jrkYQBYgt4xCuvuYS7vnaY+zd3QIboEYRCdEsJO9X0DmPNvgAYwQJE5zfz9BwBcsgxkwVbC1BivDY5GSLBx94mrhU5aUvvYrBoeVkTgmCpYPQoFKpcMMN1/N3H/t/GDv6DI/vOEmr2YWXU5Stz9OdAguOzVIDJ/nhJlAkHQBvUV9CKCFEReo0PykRwdhlGDMIMgS2zLGx53jwwS9x+9cfptm0uDhm68Wb2b9/jFPTM8w3m6hrkjTBUiZJe/jKFya54ipH33mCn+sGJgiCcdr+XmIdxPoViKuirosVowEbNq3nkQfvYmqmTBhpnobVoiJzAU8ONCy8eggsgM9NWpN3PDESYaQbnwWMj8+xa+dRhodHuPDClxBFATZYWhcvqFQqjK4Y5bVveB0fv/U0O58+wXO7YNPGuGC0Z0vKZvlOkuedzuhcbPL/iipogDHdBNKFNTWMlClFy3F04X2FLOtGbIPlK5fx1p99PVGpizjupdW0HDx0kgMHDjE7M8XxscPsfuYg+3c3mJtQnt0FTz89yabNZWK6EDONcwmYIzi/F9EI8Sswvo+uurB+42ruvitl4mRIT29IIJ4OG3YhJCyaZ/cKPmye+S26T6ugCsZGGO3C+Yi9z+3hxFiTa659GStWri5anqcgHYf3h18CYwyVao3XvP713HfPA+zfe4I7vzrFmhXDlINTGJOe7Rgt1PcuJRHwNcAXFZsp2AZ58UdMYEpEMgQyDPQBFdSXMVTAVRnoHWSgfy1eMhLfRkUwNuK8iweR7ALwSjM5za7dR/joh+/kts8+zuQkPPQgvOKGEr2RQTKfazhtkvk94GMCW8awHAk9W7auotYN48cNa9ZVccHc2SnlYsxFsvzFwiJ7BaGnAKh3hjjoZa7pefLJPSStiGuvezl9/QNkHsIwKWzWpSH2ve997y0AvX39ZG14+MFvsX/3HFdeOczwcICxs3mnj85A+TinyP0AD/qFSh6FiPKWOyQFoye/2MbkeRj14DOHT1p4M4HqaURbqKaoS3K2viQEQUpg2yhzqJ8lJIVsHrEzDA0tY8OGjTTbDXbt2kujAevX19h4bkCWNbEmQxScJqhtolYQhshcmzRLeerpxzC0OGdjjVq9TeDCvIEFgA8LLmvBZ9UIEbfwXEXwJiVJK1TjK3n66Qaf/cy3EFnGe371nQz0jxAEBmvnkU7R4RIQe8stt9xixCI2pLd7gNnJBg/ft512OsGac1oMDHpEIxZsUNeDSIr8/wXUf8jEkmIkzXmpdDigIJq3vkndLKmfIPPHyNiH5wCO/WS6F2/24mQvnkMgkwhtLAEBZQIPRtuEsUepUq7V2bBlLSdOHOXYoTF81uCaVzpwgvURgQ9QO09mpsnEI4wQhCW8h/nZWXY+9RwXXtJP30ATm9kcoApoJfcHTLEOgKvlFEgkb2ZhbF7GIt0YvYgv3fYE9993iMtf+lpe+4ZrKZe78p4DZoa8SnVpADTQYrEga4QVq1bysz//bp7e8Rz33fNl1m5IGVrWT2/dEwQpBo94QY35zpzQM7KS38am+wGKkNcnAYuefOcNPDCf81ABCQSPxwZ5Zz+nFO1jSqRpDEk/VoaJ7CiBGcg5pKVq3h7E9uMjw+iqbn7xV97Mf/0vp9n59CEO7vcsG1DiuIRkBmsbpLTw/iAquzGEVMrdXHDhS/inL9/O+IkK3QNlhqqNRVqfukWNCUV6zhap4CyfBVSxQYXpGcv2HTvxYrjm6quJg3q+LqpXApvXGSyVGdD+wR/8wS1S5LKDQKjUa/QtW8GDD+3miSfGqNeH2HRuTDmaJzIe28pw1uAKllOn0KxDCMlrg3KDvuM0/zCI8s+Yz6oLfIG8BFlzwpXLiVcBYL3H+oSQJqGcwnIQ9Cm8/xaW/eCnwBiMG0CpgQhDIxHWKA8/8AT9lc2sO7dBXJpEvICkOfFZUzSbIZYhYrOCMFzBF7/2FQ4cb7DqnHMYWH4ILbipGRkSnEEWLzqU5M0ZPKIpmfXMJ4McPLiNP/3QZxlevpH/8NPvZlnvILZAttikiF4sDQ260FlEfV4+bENhxcoRSqWI7Q8/yKOPHGVkeUxfTx0rLWyY4I0rCA0FPY5Ozt1gfBdS2KmL/Tj/7YpzIS4TvLZx4nL2fNQCdawYPI/GjOOBB+7hipcP0NXVJNDWYqhOBB/M0spmkSAksP0cOpDwldue4vGHjzPaW2FZ71bE1yiFEd61MOKfN+ZhboKJJ8XSbA/zldsy7ntgJ5ddcj1vfN1PUa0EeQMWBG8TDDGyRLz44ijz6LXgsNZTqQk33vQKfvqnfwmX1Pm//3ycRx4KaLRHyCLyQDIuL+XwZ/KMO/UgAarRD432fDHFS0rGNIk/QOq34/1DiH+C2EzQXQl485veQhAMcPCQ0mxV85nGV8BXUBUQh4kOk/jdBMEptp2/lnVr+0ib8OlbG3zjy3uZGi+RNfPSbf02079juiiiMfMzwr3ffBqXlFmzej3Veik3tgsx5HVSS0UWNCg+vzMz18ZYT73ezZpV59KYKfPAvU+yd/9xBkYiRtdZjLQLQAaIhrltypl2Zycm0mnq8G9YjEFtipdJVE6BngQ/TUiFUJajrptyrZtHnvoGmzb201NpQ9aHihQhL4+SYqRC1u6mXK7Qdke47uWrWdYzw9M752i1TrB2bR1rc5ZTp9I03zqrOYCjyq5nhL/+0DG81Ln5VW/gogu3YYJWbntjweQLlC0VG3QhVSFiwFusCJCixjGwbJB3/6ffZOq05/Y7/oQP/tkJTL3CSy8K6a7mixOIhuCjnHhsWmDzxRRUBXX9iDQQ0/iBnuSLKU5aeOk0/0oRnUKzWdpJQBwM0tVrufb6izn2ha0cOTLBqr4yYnJHZaE1q4PMzQJ76B/qY9XaE6xZ0+DcVw/QbJaZODnBfOsg9e5evA8KJymnFaoBNEO8IWl79u8dY+JEyrKVvXR39WOsB2kXRYchmWOhU8tSkDN0fT7EViJEy1gRwpKj3mt51y/9J1792nczPg7v/x8N7r9HmZ8fpO1BojapTwiCakEHK4rkjP67mOI7kjcEA+shwGHkIK3kIQgepav3BDdefz09Pf2kMoUPJlDbAEKsLxPZEjCBCXcRRkcY7h9g9lQDGx6lXD3FilVC/yA4P1dEI+RsYncBNuc8Y8cbZBnUat309PQWH8jT1UsEk2fJtzc1V/K6dQSVFqVazIZzh3j7O38FEwsf//T/4KMfybDS5opruxB/mlKlxMx0g3JUBzMJnYaytoGSLsmB+W6lEwEQV8ZoVsSIATNP6naSJA3icI5VI2tw2WYMh3DMYCTNnUmt4tKZnAbIGNbE9NX6ODnWAjedV0NJrvVEUhaaf8FZIQlrA7zPCEKwNqO7p0qtVsE5LZrYWrzPu/MtJfnOXfcVREIMCc40sKWQ1etW8Uu/+F6MWc4nb/09/qwxg6lbrrxawLWIK91oUgefoDJX0Ngb31bV8W9NDKAexNVBMzCzqE0BCKIZnHuadrtBvRRiK6vxrRuZS74JwUnyZXJScJ7I5DFXdJy+niqzp8A3VyA2wdom2Pk8RdspT1BQDfI6MbW03TxBGLLmnCpBPE9ff0xXdyUPJ2kJNCiqdjx5PfXSEPNtrzplvxphtQvjKqApcckxtLyL//juX+SmV7+LQ4eF9/93xyMPdtFsDdHKWmg4QZ4njjtLZ/6bl8WMlM0XuC06/znN06lx6AjYTzL/OMw1Me4CjF+dr6lE7uRYAoyPiI2Ab1Hv3cvo2vGi6UXR+ELDhYjJYgmNFoBzhGFAVIKRlTX6hiBjkqmZibwPgCuBN4UWLjo8LxFZ9OIhN7wlX7wADcij8WFRopBgrFKrlRlds56xsTkeffhxJsZbrFldYWiZJwjnyVOiAWiZPHS1tPL2L1QW4pG+itoW3iT5Qg5axavDoBhVTOpAS6itQDCO0ynQJsZbxFURHyFeMCbDBo5q1WNEEdPMeaCdZVjOLJEVpbNUuQEy8bRdFw892GLfwaM05mDF8GYGegcWmkyoaSCESyYO+jyAJuQE2UUt6FOwoQFpY0yGsQF9gwP09Kxk+0OHeezhPSRpg0su76dan8tbGagBX0cpei99z+7Yxcbe+ZKHZze6XOxj/+3b8/tBnLl9+16K38MUFQR5alcLitvCdzVYvAE1KhZGyJMT6vLcd95qB8S1cdLARTNE8RxZ2gAXYnwVozGBCcjSjCiyeJcvJGGjNkiKUiyTQghEudKAXHsW1EFLiDMZzSTi2d0Bhw412LvnKDOnHRduu5y4VMrZVLaFEC1BgApQLGsIMR1WhQkh76IcIsQYsYRe6OuH+vJ5vnnfQZ57NqVSGuCyq2aQVgROMVGTzDTyzMd3O9Vr3pmuczy5o5YXrnkivJbyJghaQ7UGWs47JpsUb8EbyEyu+DMjZBbS4nVULIOTgyt3NDqddPTM5wqhgHpDonWS0JCaKqk3pC7F+vx98RD4lXgUNW1Ukry5Gp3epHk/gYW8v/V4yfDawJjJvKOyF4zEYGdQM4kJElQzJB1Fsn6wU2fcREUTs6KBr5xpj6nF0I2njfPztBpNIu0ma5e56+67iSsRm7Zso14voxIurdY3Z2nQRZ908aWc+V7xQkGChL7hOkePtNi/5wDjx/dy2aVlumsQR+C9oJHLKZjf7dFIoSEX1pzp7DbPXCEpSIKYJDdFirWUkM5XDBbBeMnXZPJn5NOl4xuU8L6K8zGZz/vgm0jIVEmK9XSbbTg9VePw0SEefzLizq8lfPP2GaYmYM3oOqKSwdEEm+bgfN6qHfm5PP/14hMrAupREjDNfF0ogKKDSc5xaIJNFlsGdRbHNWnhLKXkPfqLGUqzvGVkYFCjVMrDpGmJHTvGOXpsnFVrV7P6nLXYwGDFLBmA/ovWzlPvCIMy/d2rePNPvImdO+7lyKGD3H7bPKve1UXZtNC0hNBeXMXwuxJ/Njg5+/6Qghuf92UqOLsdp0EDrC9WtkBRzZem6XQLbylFMy+LisUBXgPSdon2DKRpzOysMnGywcH9s+zePcvjj8+y/zDMTUFXFX72Z0OcrqKdJRCcgrDx/3L33kF2XueZ5++c84WbOkfkDCIxAGACo0gxSCQVvLTkMCPt2irbCl5b3rU945mpralaT+1Ojb1je3blmfU6lC1rlEgqUiQlUswBTCBAEI0cu9GNjjffL5xz9o/z3YsGSckkTY1Rc1C30OF29/3Ofb/3vOF5nwf0O2+WuYQoRehcFi4kCGUyaW+FtTmQdayXyTZaRacNvcg/LC4ztb+slBsH9yUsXyHwA5ivCgpFOHR4jO//4AF2XLON5ctW4/HfuYEK5Uocnuhh547Luebaq/j64Zd4+NvwsXuh1C0QXoDW7+EPvMnztD99c7xosqncdkwoSR0g2QaOAJZ2nOY8rPVCtARUjJBNmpFhZgaOHYL9r8CBV4sce6ObiRNLmWscJNKQiCLad8biFWD5Jh/yC2iZopSPtnnQDTyxiCzipywHmI4QqYcQhmxAE2jHuV4HGWathGQ5iCSjvozcz+IQ9W1wTnvQSpA6OiAlGBgy5HuqnJuRDI3AzKzh2eef4tnnn+TnP7Hy3b4j/6TrvamPCos1kkAF2JzgQ3fcxctPP8mhA/t54fk6A0MlSvmawyi8m1LTYis0ZDpJXodfdLHtqqzm4kYgnBEaAcamIBVKCYTUGOsU8SqtHGdOG04d04y9bnn1ZcPxY1CrQrMBrVadOKmTJFMY3Y0mR2olpBHCT8mXYMVagxUnUV4dYRM84TnWu3d6eQKk1RhRzeqTnuNzEsYJ6RJhbQmrC47JLjzdScLawVcbM+hOjQBhHFO1CObc5IMGHYOSVZYs6+WOO1dz/OgJzk2WefB7T3DbHR8h6A46bMsX+3pPBqqtQQgfrSHnB2zbcgU3f+Ae9u95g6ee1Fy1q0BhTQWVhgib8LZ1t592wnRO+A6IEYzICs3tw8kgibHax4rAKWSomFRqDNBo+sxPDzBxWnL6hOa1A3McPQwnj8L8DNRr0GopUqTj78xEFAwGT7QQwhEc2CyGLeVgsC/AFw2UjZyqhxc5Ds93eBOerxxYLCl0qgMKY3PEcYFzk1CrhFSqNbzQUCoqSl2K7m5FVxGUap3fIBG5zM8qbOplWNEMzyo9igXNldcs4bvfGufMGcneV49y4vgJejZ14+Uc1Xlbjc5ae1Ea7XsyUKkkxgqn8YOkr3eYD95+N1/72t+yb+9ZxsY0K9dbiD2cK3yHXubNHldoEBYpLVobMBYpPbQxaB3jB2Bt3r25BhIEsTXMleGF51o89mCLN14NmD4zRKVWIE1wtOA4cQhNE0PTFQ8WxcpGxUgRuy+l4FvoDqA7yJFXGr9dMNeuQvGOixQd7ydAWsdLKl25Sjf7mDiR55tfP8gb+523HBmGDZdoNm3uZf0l3fTkDULOgahmgacB60ZCTNyDERFCJXg2TyvK4yvDyGjETTet5zsPzDI/XeexHz3O+uXrCD3nRa21F61xwnv1oGiE8PCVs71iPmDDJeu4/tbrefrHD/PqK3Vu+mBIDwJrzU/3louXVWA8hNRYkSJcAZHEapcveGBE2snao7iICjxasWW+onh9n+DpJ2KeegKOHnbdnCAEwjJRzXHXW5zMoFAJ2iaLi57ZaEAeqHfIoCUu8SjlIfCbKKuROpfVIhWIuhvlfYfLgDvGqXdu3CTVnJvw+av/dJBXXoGd18Ltd4+waYumuyckDA1SzaNNGWsti3kXzt8coQtphCZqepTrMZVqk0Zzjutv3MkrL04zNnaWb3zl69xz+4fp6+lFCHGBF70Y13syUEOKtD4K6e5eEkrdPrfd+VGeeXI3hw+dpTw9Sqn/LFLqtz0C325P3PhC5nU53y1NLa4LYgXWhIBjRl5oNjj2ss+e5yX7XhQcPShZKEMqYP1G2LgNNm0RWBHyH/94gdkZhc1q3nYxC17HSLP5JHEeQiAIwQhyocIPfAwxRkgQHkjNu5GU6CjhGR9rQ6xtggDfz3H65CQz5+Cej6zixjt6GFkxxWBPTBC2x4pT1wEy7b/X5s1yCZZWLYRMQAqUr8jnJL0ipVyrUK4/SakflA8njyQ8cN/9DPT3s2zZso5xGmMuSi/63rJ4tFODM1ng78WERcEVO25iycqVnJ04zbEDeZbsMvh+BoJ4R8tmWWra4YAygPQEcZwnTXuJW91Mn0s4fnqeJ15q8eyPWiyMQ/3cAMV8NyvXWK650XDj7YINm3x6++HctOX+byvmqjE6AoSftXHPs/ctAp1jhczEai1W+qAsuWKIzGnSNHYYWAxaJQhj3nGdt92ldNeWywb4mqSpYm6hwlW7Qu68ZxMDK07T1dNCNJso4WG0S/bc+Ldyc02A0y91r9P4dawxTsXE0+SLgqDgk+8eJMzXaUYp0+cSTo5p7r/vPnZeuZMlS5Y48LIQKHVxzii9tzooaWd0FwFCxnhSs3z5KrZfuY0nHnqGvS/G3HhdHqXqF/aPs2XMW63WWu3afNleKQlCBkRRH7PnQo6MpTz/7BFeeiHlwEGYmFuD9GYJwwo7b5rlF35plKuuHGDNypS8WkCmGpEognwfG7d4vHHkHGmCCwZNAYGHtSmSBOkqo+7qzEAW/y6Ab5H5Brm+FJGPSJuAjQGFlk6cVr5zJ5phZSOsKWF1HmvzpIliy2UFtl85QO/gQfziFFHSpCgcCNoKB5NTIiuvLfpd7fa8VWBSsNogRd0lkyIgUCFbLy8wvHQEm9b5w9+b5OSJEzz44IPccMMNdHd3d2LRi/Gof08G6pFznZ1AZbFbH551TdK777ibPbsf4YlX6qx64iZGhw7T0zVJ4HuEuQDlCRAapchiMI0QFt/3EEqgjSWJfBqNkImJlLGxCvtfn2LfXqiUIY5CBgc38MG7r2KmYjh1+AXuufNK/sdPraF74AWEdxxETEsXUcIig5iUM9xyg8crj8HRcYFWKYRVdAKYfgzVDnuKIIdS02hAihw2rhMUIScjZOQjE0e3jWdJzbtrRLRPBKvqbirTFJG6B92I6M1LurvqFENF2gzwZBFpIbYzbppTgDZ5jA7BgudHKBlhjUFn95a0yiWVHS2rGI1FRy26Cwm33NLL87dHPLkbXtj9NC+++ALX33ANxZKfRTl5MFn9WALMY3HEuW823U7JT4BrnqTZD/nv0pp++npvWXxbAaM9V5zV5XIebFy/kUs2b+fhR+7nP/zH5+nLzVMMwPchn3fU2QjI5RwI18kHus99X6CtpVkXLCwIZmehXAnwvJUMD65m+xWbWLdhKytXruXkmTN876Hv8KufuZef+/BSlgy/TjOdx8i6Y3mzFo0FmaD8lEu3lFi9rM6Zg5bIkvXwwRrb8UIOeN5WYwNpJSYLRo2j0s80QZU7Tt9tyJa5PCFNRq/eAJ2n2Zqmu8sjV2hirMFTITrVJHionEIL7byktgglEMKSEmG0U10RJnTCEllE2hEi6cD1IKcSlg5LbvlAHy/tm+fsxFm+862HuOrKXeTzHpYEX7kLalcbXOt58d2X8UDh5HU6VRexGKf5/q73VqjnTUMtWTdHKBgaGuLWW+5gfn6GyalTzE4OcnoearUqSRo7HvU2sDE7VoUAz5NIIQk8n8HBEUaXrGTN2kvYdOulbLv8MkaXjdI32IMKBN//wXf5+6/8fyjf57bbdjA0epYkmSSNm3g5hWuFthDWIqwTfV25opfN26q89JyLQ+PEvYEXMEYLXI884z1y+59DJy2aTTA2wVMWTA5sANTf3bZZLxsRrmc3RQLeAr2DBiFjjO9u2ES3iAxoW0QaibauEeHoeloomaCUyW4cCdqDDCR9QRvU+ggbgmlhUeSCHNfuWsuy+55h3+tNHn/0OU7+T/Ns3raGIB/imJkXR2SlTs3Zeci2qrUGfDKN72yz2p27d7cl/9D6RxhotrIjzgrQOiafL/DRe36eO27/MEnSolKOKS80mZ2doVqpEkUttE2x1knbYN0AmVKKvFdkoHuE0dFl9PUNUSh2oTzPZfBCo3zL6/tf5St/91XG3hhj1ZplaDuO9MZptU4Q+o48SymNkZHzggYwIfl8k+1X5/nB92Jax/KcP3Cb7sWLTrrh2oy0vUcBnaY0Gqkj/1GpUwIxBZfJv8M2p9sqkZWy6FTtrYixnsuwUwFRBEoU0azk2LFupmaPk5omoOkq5ujpbdHVk9LXDzkJvjJ4yriahM2OtPbUp4idnJCwaGpYeYbhZXmuvnYJx46f5NzUGZ564hmWrxhhIOcUXawsnI9x8RwnVcdzth9tvoNFRtq+pvd5vTcDvSD+IPOGjgRWCEkuLBH4JYQQ9PQIlq6Q6DTNisIGbbST5cMdxSaTWVGqhe81UDJEKYGSjrUtTdzVnzs3w1e/+k1e3r2XtGWpVco0mqdoRsfwvWmkTpB4sZPWPAAAIABJREFUTj4mKyMJIxAmwFNVNm9V7LgKzhxL8OjB0MTI2FF3ZBm9RQPuGLUkQAltAhrNlNQ1beh4ftsuib3TdqdBiNhtX+cYDvCkR5JAon0q5SJ7X23w1OOH2LOnyNxCBZ3pqRULDS7fAdfdBFdfDyP9CoNHagKsSrLwxL05rp+vEZk6tZAggxqqeJjtu9bw+NOWE4cmeenlJ7jro7sYXDqMOxESIE+b3VmQUce4zVx0vW1DfTNK4v1d79GDLl7uBQsMUgp06tiBsQIpIAjamxV0ap/GZscVdN4sIItlYtoXb4gQWDypWJir8OKLL/DAAw8wNzePsTELswvMzZ0kNZNYfZaSVyRNnOCstWkHUCGMhzALLFkWcMPN8PB9KaSC8+X1C2Ao7jORKSWj0VYQJZCarDYqNELEb/Oz/8BahBtwxgnYAJ2GxGnI2SnNjx4e51vfsBw6CPO1JtaGCBOCUfiyzoplo4Sqj2K+gpCzGBMj2yq0mf5Uezu1AYwisRYUaGtJbI2hpYLlqwUnjlgOHt7D2XOnWL+5H4ixmbapxccYQdKM0XGCkj5BGKI8ldGRt1vYGoT3k9SC/tHrfTDQTm6KQOJ5PlhXEnG3bgyUs1ffrt+d70p33i0EmgKpWeomD7Njw+J+/fj4JF/5ypeZnDqN1o4+plxOmRg/TuvSCt0FMEmEEgUn/d1WEs+AvR6Wnq6IK7aX2LCxzoGDNdCLO0ntY94ipbuJ3PcaGAG1hjt+E5mJJIoa4m2y23eyX2LRcSis0w89evgsTz6jGT8lUKKLVFfpXppQmQcbWdKoACZk7NAE8wtF0tQgvQRPtEC3sp1MwbopACzEkWR+NiTMr8B4KbVWDSmLhPkeVqxZimachUqZarVBqiWeCrEE6NTHaEG12uKNPS9zcP8+li5dy+WX7WR0yQDSl3iBcsqBpAgk2kqHuX3X+/HT13tEM7U/aN+r8s3fOP+pDUD08NajoJ060/metHRELbJ8BW0gjVNeeOF5Xtj9PHHstJGkEJhUMnbwBDff3E1PAawwLslpvzLhYlcpUkhdBWHJEsUtd/ZyenKe5gJOpAuDY4pzuIH2aIcFkC1S48Al0xMDDK4XCDGDlCbL+sX5bXg3W9j2OKJBkEvZsLnE4LIChw8O0lUS3Hrndm65++M89OAP+du/+gbzUy3SqEnUTImbEYWwiLCQxA7h796CRZsnoNkc5JUXLU8+fphz87BQg+GRCpdevYLKfDdpMo7vj+DLIYTpJUqaWBNSqUS8tmc3f/03/5m9ex5Bx1XSuMDG9Tv5tV/7And++A6Ecl5bSNAmQsj8RRSDvmVkc/HET7YuODUXqVX8lOXiUHf0SUFWzbCcnT7D0089zuzsjNOelzIj7Mqzf98883M5lg657o9FX6BE4gTIIqR1xlgsJtx0+wDf+8E8C3Vw9p6VTlA4oYL2K/JAutizXIZD+3OsXzaIH7SQXi17DQb1zkcGcCZ9fgxG4tDxngc9vYKhUcOGTX1s3XQzvT1b2LZhlmUjj9NaOExYFIQenDx6ipeeNWzZLOjv9ZCewPpJ+47CSUt6KH+YYmEp1YUJTh6d4cSZKSIdsffQHqwpYkwJzytihU+tmlKvVzh+9AwPPfQgP3z0uxw98SJhCIUc1JoVXnn1Ub705xHdfUVuuPkqfOX2zliLEtn9/T53S9+jgWY01EjajCQXJE4COke/Ve/8zhIJkgYW7dDvKKSEV199jlde2U2SJFgjQPhY6yEocvxYjZMnFth6SRFLLeM6km3lRpc02whhJMpCPtRs22nYuBVOnXH2aDsGKoEoi4uzUpKqYC2UF+DJH85z7eUbWbK8TKNRI/QDdyPxZsW7n3iBWOsGCTuIOSvQ2pILwSQNukoGRIVnnnqE8eOvc/zM8wz011h/1zJ6ijk8OYO0Mzz5I0hrsPOKArmBbpCTLnYUCmsTUgzVekIrLvCrn/m3HDhS5Y/+9P9h8vgRFvYuoFQDbXsxUjN57iRPPj3FKy89x8M/eJgTJ16nlTYYGIWrroUtm5bw+isVnny0ztih3fzlX/45m7auYmTZABLhiCEs7xh2+G7WP8KDtknS33TEWeiMw5JiRYh922714h9yLkuiQHe5N1AI0IZms8lDDz7GmdNTGC0RQrisVvhY8kyfg8OHmsS39OALm2XfAosPWZvQSosyOUxqUZ6h1DfDHR8e4bU9U1RqMkswzg/sCRSCPJociApCQqMOT/ywweolz/KLn+pjdDUZBvPdiEzYTjlLZnVKrI8nI6KWQdg8M2frHD3Q4ty5GS69usRN96YMLtH09EYEQhOKPIVgGSKdJqcMARZFiyRTYbZYtAItDJXmWRp6kN6RPN3lCFlsgb+ABVKtUX7K5Owh/vDf/w4L8+OksWthDw3BllXwiX++ih07lxC1UtatW0ejsY8Xni7z3HM/5sCBffQO7iIQYTZKw89EbOM9Gmj7xxYnObypFtZue72T6ZfsGVZitHHxjTU04xYnTp/m5T37qDcThHTZuZLGwfiMT70MB96AqRnNaH83vmoiaTgcr3UCV1pYEhnhkyewHjKpcd1VITuvgFMnJZEwrtgtcgAYCtk1Rp3mSWJh4hz87VcjzlYmuefeATZvWUXeL5MP5rFyLvOI4EnQaTtR9LE6QKh6Bi7O0P8ZJYm1hiRVyKBE0jDE8Smu3tXL8mWj9A/NE+Qb+LkWSkVgBEpIPAEqTLHakOoUI1I3Ne8ZjLVOMlyk9AwZepce5qmX/wXPPr1AqzpFznZBGtE7FLPjujKDg1UKuS7iJEXlYGQE1qxYxZLBzcRxg+d++DInTtT50M8t5/Iru9n3epl6JaJaaWHjPFIVEH76M6s0/SMN9E1LLP5AXfiln/zkCz+WjoLbCkMzbrJ/7A2mZ2ZI0hRPKaw1mMyDGyokLTj4Bhw/5jMyGGBpdgRwXfHLx2IwfopJNb718BNYtbTFrut6+NHjZaKmyA4EnQGQBdAC0XRRigWDR2xyHDtZ4+vfhNcPz/Lhj/rceO0Slo0q8qUGngJfSqK4he8bZ4vaR9oSiHq7e+iCH5E1BYRByIBWpKnVGixdCt09gmJ+nEDNZ5tis7KCu92FtZ3aiYtMUuIYkshidC+nT2pmywsIL0+g+lizPiYIi0jby1OPGJJGkyu2we/8r8OMj5+jK1zKQN/VeKVjWBuxMO1zaP8RXttzhLgCN38AtmwLODtZorv/NM26Ry5fQJHLklo3Ur34fX+/1vtQZnp/l1BuLlMbSxxHvPTyburNCkIY1zdHdOJLVITyQsZPRjz3mGL7lWU8z2J1zo0kZyUQYXMoYbMxZWeMYU6y4+ohLrmsTHm3RyIT0A2nmKEqi0oJOCM1YHQeUFRmyjz/Y9j/2iQ/vGySD9wMd9y1geWjveS6QYgpEKcxViLxkSrACsnbF/TblQNDGEh6e7sJwhxGt37C87MQxtLpdWltyeVLzE/38JW/HOe7XwNsHkQe/BbLtp1k+w3wyV+5EulN8PxjKdfdqNi2rZuZs9Pc/zdjTB5rkg97WKhUqdTOUOiG7dfBJ/75SnZeNUxkJ8iHQ/i+orunRP9AES9IEJ6PlRH8jIQZLioDtZwPtIUQxFGTY0fGsJmEi3tTFAIPbVLHsCOgWinwyPcjPvqLvaxZXSOQDVRW1xTWIK0hdbN0GGORPsRxmeWrBXd9DF7fk1COnPa8FAUM8Xmn3o4+XMsAjzyp9hC6TH0+5dWX4OABuO8bh7niUrjpphG2Xh6zfJWlK++hvACj6XjP8/pG0O7AWRuTy7lCuDYpWtddaezNx491wg6eEkgp3bUIiTZQqaY8+N1x5hbgf/uzAl7YzdnTJe77r2fY/Tgc3AdHro04erTGSA9s3bAOq09xzXWWzRuGObRvnqnJE3R1F+jvH2ZgJGDp6gZdQYI1ZzE6YXJijrglyBcK9A/2oIIEm4nzGorvKJh7t+uiMtDz2T9YY6jXygS+5ZKNK3h9/wEaTXecWOu75wlNrCOIixw5IvnR9wU/94t5RkZqGfwMJAJIXFJlNKlxEoLKj+nqnufGm0LuXxNx4IClFYNDYAje2hpxrU8HKvOw5InjBonRVOswPQHT4zB2YIqbb4cv/DbYLFzBaizmPN7ngljdcTBZa5FCIX2FsSnWvL3suZSAEBmeVmKtoNWKOXIoobsffuXzK1m6YYaD+2IeuP8NUgnX3Oxu5EOH93HkdY+7bi2yZWM3RT+iuwh9hQqrlnfTahVRSuH7As8zWFVFmArWdnH2bMrpEws0aoJNm1bT1dONUBakxpKiXYr7vq+LykCttWijUVJg0pRWs86qlaNs2bKSqekTjI83SZIMbSRDsA2sgtREJLqL73zDcunOkJ5hB6QQ2sNiHCWNzaGNg/2lGqzUeL7mkg3d3Hqrz9REjelpn4QIbClrIrSg3dIUGiGaWBuR2BSFY/ZIbICiD2O6mZ87xdBoxNbLIFfIaqhp5JhEsjD3zfUMF0W41q7TnkrdrGcHM3fhk4UFayzWSjzPo1FvMjHuDPeOe7qwcoqoqfnKXzVoVuEzX+hhw2VF6q0aX/ubCmMvDHLTTUX6B6ZcdB5BTlpSXaWnu+mQ+6YGuhtMDqHqtHSdJOrj5PEKaVJgZHQFYa6QFT3Px8M/i4GRi2oIRQiBkh7WWpIkYmF+mtHhbj505/XccMNleH6GJ8XS5jk0KSSklFuT7NnT4qGHJjl7TmB8MEJhhYe2YI1ECkcmYbJqciDANyn3/vwSLlkvkMYiVdu9ee6RASUsltTWSaliaaJJ3e8lJjWpK6WpmMu2K67ZtRqlUgQpUkaOVOzNF9uug7Yf7ea8MQ4m+BP2yFgw2RRmmjpAzPCQYMvGTYSqH1Nfy8N/t4lmFX7ls91cd3uFvuEJjK5wbgKWLy2w8/qEYu9pR/QgQGiFnyU8jibIoGQdhcFYSNKA+bkiZ07FYLpYuXwNniwiyOMkbbxOYvp+r4vKQMG9AUJI0iShPD/NQH+e4eGQu+66jpWrwPNw/VDbSa8BRxrWMDUe+n7KM491ESNpGdDCAR9cQdR9bLNoSWoIrWLtmjI33NBHd0+K9ABZweEHGq5G+qZyr828oekg0GoI5hkcsVy9a4SBwRRPtg0vgcxAre1ADN4SX4o3GyzwFqvuvACLMa7+FQQ+pVIOTzVAzFNvHOfI0df5zGcH2bCxixxD5OwA4/t7GD8IN945RW+/C3kwIpvNct2n82JXODCIrKONol7vYna6xMwMFEr9XLL5EpTKZYjvwBXrf0ZgkYvKQDsJEpIkiigvzNLb45MLY6655hI+eNt2ghwImXWy2gRNWVNLq5QzpyV//V8q7H3NEOkSrVSBzCMyl2UQHTYQaRSBsfR2zXHTLT2s2cD5SonSb+nenl8CV+MNsydHeGKG5Stgy5YcvppH2fOwbie01W6lvvV3dozSXvh4uyWlQKp2RcAgpEGqlFRPYXSF115rceNtsHp9la6iRte7SKo5xl5q0h3C3Z+o09UTuS4ZPpBhWkXivmbUBRCLJA1YKBeZmgpoNH26+/pYvX4pUnqdfo1YHF+/z+uiM9B2I0prTZI06e0NCcKYoeEcX/jNT7NpUy9+4PrxHjk3fpJtqBXQaPRz+I1e/vT/gMmzXeB1ExkLInbgYJk4mhkrkFbgBZqkmbL1soiPfiJ8qwG1XZ5Z/MX2kxRShHhA6Bs2bICRkQhP1PGMs3HV9ixZ1+jCC36rUZ4nQ3ubB3QwtQ4QZjBGo3WCH0QcOwjDfXDzBxVdpQhhKniiyanj45w4HnP7HV1cfwvku+ewqo6VMVbFWNXCihRri1jThzWFzp+MkgJz83nGxhZoxYKB4R4GhgtupqzzuhKkePt+4T92XVQG2iYCsxbSJGF+boYgkHhKA01GR3v57S9+jm3bNiKERJK1RcFtVBqigVpD8sJjgr/6ixOcPD2Nl8PN7IiM4kaQCRhI0E1yCko95/jAnSNcsX2YvI87+kwebLd7kKdDmCsNqBhUA6M1UvugYflSKOYdckpqz4GlOwbqucdPunbeZKS0IUoX+qa21mh7VkhI90hj9/e3X96D1IN4egkmkTQbMzzw17D9crj3l0cxrQLGhBgbuEfW1TJegvHnMKqKkRZjcxhdpNUqUa/7jB2cwAhYt3EFw6NFJ2/T3ndiWERE8X6ui8xAs166hiTxWShXMbJObKoEgY9HyAeu38nHPrKRZUurSByhqwNsCKAISFKjWJgf4Lv3wQNfizl1skiMbUM+Ha0mFqEMcQIylAijWb3Mcu/PaXp7QEgBIkFQxEkHJo5qpp1ZZ6mroICSBayAUi/4QQbhs0EGOHFAGiFaIFIH3F6k0AeuHJUKSSokpt3X7uTGFyLHZMbod+G+QZiH3kEf6VmsDUiigKQV8OwzMaUuuO3Dw5T6Jgn8NiV7JmXZviE6r0dgjEKbgNT6lGt5zs2HnDjVIBfmWL96M3k14vrvWdTibt6fzVz9xWWgJEgHL8LaAlp4mKCB8BN0ail4vQx0KT557xruuadEPlcmUCAJEKILpEEE7mxNMUyehm/8PXz5r2eYr3UR6wImyeObHFLEJCZFhGAIkaaL3rDOvR+bZeulkCtofD/Fw8MXEiWSTFs+A3oYwOYR5DF4JECkIdIGIwVaCAwB1obu4mQKMnaA4MRH2oxk1wOrFIlQxEJhZNDhNH1L1tRO1N4chggHzdEicQojyqIxjI3NUa/Bpz7ns3x9HT+s4fmtTCkwQZKgNHgalPaQOg86wBgFMqAZJ9SiIgcO15mYgoHeATav3YGXFBwXgDJZx66HzgnzPq+LykAhO0ElKCXwfY801Rhr0SZB2xbGNlm2YohPf+Y6brirRrGUEtgCpD4yXMCKGYyYI6WFCODUKfjbv0j5k39X5ujhAQhKtGhhfOtOXQtxFIOogC2zfGgFn/ylPKtXg0okvqqCrGOEj4ll5h0lUEKiscyQUMOmitlpDysKqNCCamBF4o5ikdVkjUL6KYJBjM0jPUmrEZLoFCu0U/5Iu7BpEfvOZ/HcvgkH4ka4pGlu4SzSg9vv6GZ0ST8I46ojnd9rsqw9Y9gTKVo0MbLhRqJljkpZMT2V8NLuA0RN2LrlUlatWrlIqa7t3Tvttvd9XWQG6i7UAsoThGFIo5GgNShPgoiQfgshWyxfLfnN34GrdkFX9wI+CTLrDgoPkBFRGtKMJbMVeOB++NM/Os2TPw5p6RL1xI2HWQ9QGk+EKJsDZrnlA0VuvwX6SgZsDU2E8BSQd+ikLHsXxAg/xsgIGOX111KOHWu68payWNUEmTitA5NHmBz1VgsRVjGySZQatNA0631EzW5S3cKkWT/0bdqcbzGAxSiyrPKmJBjTorfXY+MleQoli7VNfM+533bTgHZYZD2nA5CFu8JLwZPUaoJWc4Cjh6ocOZggBezadQNDQ/2LxmHaMaf6mRgnXGydJFzPW2sQyhLmQmq1JlorrBCkponnt/ADS97EXL+rm8ZnDc1qjb2vVKi3cljZwni4DNd6IC1NHTN5TvKDBw2nJ87wq58vcf1NI3SXZvFzKToFYRSeUmhbYaTP4yMfWsGrT55m7/4UvBwNHWd0h1n9MFPQc6PIQOrz+j547NFzrNsc0lOMCJRFae2G9qxAKrBGkNgq0uZIox5++Mgk07Pz9AzC4BJYMTTFkkEotCej326T3lxQsI72RgiB5wmSpE4uLzJKmxjf94iT2IUO1uu8dtqszmiscKOjjgTYo1zxqVb62PPKISrzMNjfxRVXXEm+kFU6OnPy7WTuZ7PeJKJwcSxrFFGrxsHDrxLmWqxft8JR4wiL1mWEX8Poc9A6w6o1BUZG4cyphNnJkCTpwprQHa2eAS+GAITuJ0oM09Oa3U/GtNI6I8tCevty2HgQpRpYUXeiC3qAnq5+rKrz6osJjdgn9RJ3O7szHkGEou2BwVpN0tQ0apY1a4dYsqqG52XOSnchZA0jWqB8pO0mra/muR8V+bN/G1GtF4njItIKCn0JvSUI/RCrFoHC3654umhJ4WbUtUmcsQkNwmkupTpx2b47WtycuwUnmx5ipcZIDT60Umg0C5yb7GVsv+K73z3J/Jxi++W7+OVf+hSDg/1I1Wa2br8+//yN8z4XQy8qA7Xtf1YRJy3mFyaZOHuULZs3EfoBOk3IFySJrhCoMiIZw2jDyEgvl2zuZnp2ltmZJlFTIZVAqhZGgzQlUi2x+KRaU28Zjh2Esb0poRxm5do8mgjPc2zLQif4YYvRVUUOHa4xPZ3SqPtYz4IOEMrxSXleRg0JzgvpLlo1y7GjZa65fjWFYooQMflQkZoYpEDbEGOqnDho+fKXj3PLvREf+uRq1l4KazYLVq1KKfqjCN2DVRU85bkBQW2QQiCFOO9YxeL/vE5TQMoLs31nNzZTrJNImbpE1DhQuZUOz2k90DbPuakuygsr+M4DR3npxQa53CifuPcXuf6GGwhDP+M/WOw930Tk8T6ui8xAs3BKu40eHz/Jt+6/j0u3baOnt5d8LqDRKhMEkrg1TigOIIQhCA39w4qhUUWrFVGpJDTrTkDLZxCRjKBtCysjjEjQ2tIow8wUHDtSoVqt09vXQ1iQeLkUq2O8sEVQ0HT3dnHwYJPyTEjaWIZUxtHPeKBTcT6rtgpru0gij2qlydz8AqtXD9HX72NxYyMyayT50rBvT4NlK0Ju/PAqVNHn+w8eYW4qYP36QccW4idIFWWTrdaNcws3pNdZFxigdEaYUQldIDjWeWrbVHVmzB42o7vRAmID1WovU1MDHDqQ4+tfHWNhXjI0tIYvfOELrF69iiDwENJmxt820EV/8H1eF5WBGutqlcY4bzExPsH//Z++xPz8AqtWrmSgv5sgcMVyaedQdi9SWgwxQRizYk2BdRsDkBETpyBtgIwGgW4SyiDLrtinewGfJPE4N2XZ81LC1Lkqg0s9hpYM4klHNWNlyvJ1AXHTY++LDaLaBlIzDcIN1hlTdKSxFtAOOGFRRC3NqRMpzWaVjRuX0t0TEYQpRgPaYLVgYKCfTds24+V7OXCoxZf/cpqnHoKrdy2jd2gWFc6grIdUTnTLWpsBtjlvCG0DFe0aZnaL/7SjVojznSgUBoGVHlYWiOMuTp0KOTc5xH3fPMxrexpI2ctNN36Az372N8gXcrRHDJyC8uImQvvGeX+t9OIy0Kw/IrPzqVKu8YPvP8rre/czeXaCFcuXMDjYhxIemArK7kXINEOVuzn1voGEy7bnWLUyYeoMVBfK6HiS1GtibYCkhJUVrEgwQmJx05snT8S88HxMI6qwculyioVePC9AeHOsWLYUm8Ibe06j/CbagrYe0itgTQvVcWrC0ZYrB0I+eQxmp+bZfsVWpF8h72tEbAlDCEtNytEEuX7NV788z6OPtCgvpBw9MsXGzR5LliUo45PESYeqW0qBlIsY5xZjO6zNPOiirtTi/zsPcwExHVm9NkoKTJz1qJaX8dzTFb7z7ZNErV6WL1vNZz//61y6bQvKIyO8VTjFu3any0CHp+X9LdhfZAaaeVEH+KRebfL4o08zMT7B1OQ4Bw7soa+vxPDwKKHfRJqDJKkbRlMSpM2jCPGVYNVaxWXbu+jtbVKpQK0FcWIzNTbr4HFSYYQmNRHGWOpVOLgfju6JKBV6KfXVyBVaFAoxK1d14Yd1jh0z1JsQaYUVxvXzrQFpMFZnNcUEgwYNc2fBM0V2XJsn9BOCpM+BYWxMK/Z5+fle/uJLk5w+447Y2gwsnLMUgx6WL68ThgFCyk48aRd3lhYf8e+qzCPBCmeoUtBoWBYWJOX5bo4eVtx//+ucOmUxpp+PfvQefvmX7nXS3sJxb7Vh4OdfQ4ozUMH7XRi6qAz0/LtgUVLRasY88/TznDp5krn5GhOTdQ4d2kdX1zDr1g7gB6+QWoOUCikkVnvYVJLPSbywwtBok8suW8b6dUPMVRokaYpOLSYFozOQiYwRviE1EEUB1fJyJsfhtX3jGNli6egoyqvS199i66WjWNtgctKgtaEVCUTqOVVi37b9vysvCo20giQSNJstLru2i5HBEnlZoBFXMV6OEyeL/PG/O8trr0KjBdKD1kKRiVOaIwfrDI9YhkeWgrIY2UT5gBYIGyJN3qkoZ0gi9zezbez4yzaWNfu+zJ6jJRYFUhEbxVzZY/JcjpmZYb75jQO88nJMEnWxbMkGvvCbv87WresJwgCbDYMJzt8w5+uhGTvLf88G6hg3UnekaU2zWefUmRO8+tor1JsN4sQydU7z2r5xWnqCS64cIwwHwQwiTBdCVhCyCtlkp7SQCzUr11lu/pBk9aoEG1kWzoBphk7j3SbnpyOVizsbosHZOZ9nngzY/7Kip1uzapVlqKfIzmtabNtqSSqW8f0BqS2ihY9SEtDuGoyH1AUMCbGyjFcTVm3qZe3a1eTDc+jSDGemSvzd387ytb+HRgTG+JikC01IImpMzsLLTwFhnsEVeYoDlczoQ2QyhGotwTMSTyQomZJKZ6q2HYtKEBkwxkiHotMKYgvKeGB9WkZxdg5mKkPMVNZx/7enefihKWrlLoq5IX7l0/+Mj37sTgaH+h04R6qOftSFcW5bhPj9L6tfVAYKbSpGiVIKY2BmeoYf//jHlCtVEBbfV9RrDY6MjTMx5rFy9TLyXQuo/ARKuY6HkgKrBcZ6Lts2FbwgYeWqLq69bpSd1/TjBQvUaxFJU2GTEqQZDZ9qdcjgPekzP1Vj72sJhw5qirmldC/xKfYP0Ex6eXH3AtVG4kZuZUSx6BPmQgQKKQMXr8kEL4BGc4Frry4xNHAElYPvfrPF33wJ6vM7SMU0VqUIITF2AGsXEBJaZRgbq1GtVBkeXEWp5CNkA+HNI3MV8MquDaxDjJAIk4mVCydV0waCKCkwWmBSkbFjh8Q6ZPxsQq0+zNTUIM8/u8B9XztEsybJ57u58cZd/NZvf4blK5bg+e97XlcQAAAgAElEQVQvrfe7WRdVJwnocL5bC57ns3r1akpd3Sg5hbE66yUbZqcFD34nZXbhDX7+nw1w5a4CQwM1fAE6VXg2jyRCJxF+BrwJwjpdSzXDwwXWbhjmjgMpu18os+fVKqdOQLkC1RokNnUAkJZP3ZY4eWKK+Xk4evAY193ps/aSFTzxzBgLMQQlRW+xn127ruDyK7YRRZqopajMp6RpwtT0MZ576RGOjcHzzx5iyzqPiaM9PPPoLDNncw7dL1ziYtIUiUKYIr5XZ9mKXpqNMg9/z1Cem+Huj4+waZvH0MgsxWLT6VRJiU08pxeaKR+397BDd6ktGMfubIxHtQWzC5ZKdYRyZQXPPjnNAw+MMTcNuVyRa67Zyec+/2nWrB3GD34GtaN3sS4qA7Wd3NJF/L7vs2r1GoYGRzhx/BRap64rIiRRAmUr+eHDCafPzPKLnypy98/1MTIIyrr2oudHnfBIJQJfCfBqeGGVdRtgxXq4+S44faLIC09pnnq0xWsvwVwEUSvFmJAk7SWKY2Zna8xMF3htrEJX3zGaLZcaFEoBP3/vx/ni//I5BgZ6yOdK6DSgUfVIUzh27BD/8xcnOXp8Ly/vjvn43aMce2MpRw/OIoRCi8MYYTrG5IkYKXsYGe7mk5+5lL0vzvLYQ6/x3ftjjh2e4eOfHGTHLsvqDdOUihZPegQ5hUnPx6KwaKJegBUSKQukSUi9pjk7r2m0hmjUl/P4Ywt854FTnDkRoESRK3dcyec+92t84APXoqR+F8RoP5t1cR3x1mKtpp1lgiSfK/DMM89w7NgxtDboVKOkRCqfZuIUO8oVePHZhLPHeujuGmFoxCdfKtNqJagsww+kQeCYQzwBvnLjxxLo6k7Ysq3IBz44xE0fVKxe36KUB5FYRJpHmwUSIhJaIHxqC100K0PEzQKlQj8f+ehd3HjD9UglCMI8Uvj4KkehkCMMipQX6rz22n6iRp3VKwNyXd0898IktWZCT28v9aSeNQ0NiBbL1i3woXtHueK6ZezZc4BjxyroZIDJCY+D+2ucOGppNvpADWJVCSMVWrsIWAuJkQYtLVpAiiJKC1TqAXMLgvkFRT1ayclTXXzr/qN879snmTjj4XkDXH3ttfz+7/8WN910DbkwwJMhCJ+OLtA/wbqoDPR8B0R2yhnKk5w9O8nu3bupVssdbvvUZLzYQpIkhjiG8dN1xvZPU5lT9PWNUuoKs8nYjE7cgFQCiyJNHTBaScj5PkpYAi9laCDkkvUlrtrZy7XXF7nsqhorNlQYGIVCCazWxE2DSV1PW2vN7OwCV1y+ndHRpSjpo1T7AVYI+gf6+dGPfsT01BRxq8mlVy4lsmeZmoMVa2B0VUKxGwpdsPYSxS0fHmXzZUv51gN7ef7ZKVauWMZtt9+JsTA7V+HkyTkOHihz9EiN2ZkS9VofSeoTpz00426acYlm1EWt0U2l3sdcuY/Z+T7mFwY4eUbx7HM1vv3AIV56sczMlE9f3wpuuOkmfu9f/hZXXrmNrlLBYWxtkQ4T8D/RuqgMFLLkUIhOtiiARqPBs889y8TZM3iBxFqNF/hoLUAHrn8vDM0IZqfhjb1NTp2cpVjqom9gMEMZO6Zkg4cRPuAjhI81KjNg8JTBEwmlnKWvr8GKNRW27Wiw46oCV1/Xy44rewhVL8eOzFOvN5AyIUmh1TIYA9u376Sr1HV++k8K/EAxNNjPxNlx3ti3jxNHI0S4wK6bLqVvdJ6FWpN1GwbYvmM1O69exs23Xk5vf56HHtzNEz+qUsr38KlP/Sqf+/yvs+PKy1goL1CpRMzMxBw/1uKN12uMvdHg1PgcZ84Y5ue7qNX6mZkpMTVVZOpcD6fPlBg7KHj+hXkefvgoDz04z4mjhmYjpL93JXfceSf/+t/8Llds30Ah7+NJH0HuvwVY6R9cwtqfBavje13t+DOr32Wv7OTJE/zBv/oDvvmNr2UCs5CmEmsGQc4Djspb4BJwX0Boob8Prr0ZPvJJuOZaj/7+PJ70MCkZKsmgpMHYujvuM1a6dmBurSvPGOlKNCKA//dP4Et/AucmIch1Ua0CIkdPTzd/9Mf/Jx/7+N0Ui06wzFiNNQ5w/cYbB/jf/83/xSPfewJVPMNlu+DG24foHyhRW+hhcGgpqa5x6PBhnn70HGN7LZ6/mt/7/S/y6U9/guHhLoSKWViY4ZmnnuZr//U+Xnx+P1OTVYw2EM6Ty0FvD3R1Q5gTKKlIU0G1bllYcKGQTkHZPL6XY9XK1fzGb/waH/8f7mblyhFkR2sp5+a4Ndmg/H9TI7hgXWQe9O2byJ4vGR8/xb79e+juzhPHTZQU6EQgVYqViwe4QrS2pNISGTh9Gp57HJ56zHD6VJ6EAK+rileIXGmHAKsLDqZmLb4P1uYQtgdhiwjRQEoXt7aakq/855DXXy3SM7CVX//du1ioTFNZqFFvVBgbG2NgYIANGzdgjAtFlOdS6u6uHlauWkelWmV86iBTZxP2vNBk95Mpr+6eZPezJ3jy0aPse7lJvaJYu3Y9v/PFf8Ev/8Iv0N83QCEXokSeMCixeuUabrjhBq66eicrVo6gPIOwAUksaFShtiCozAnm5wQz5zTVskfUzGFtgUJhmNUr1nHPh+/iX/3r3+W2265ncLALpRyxBTZ08b/gPKfvP+ERf1Fl8W9dzqMGvmLr1kvYunUjN99yPU899TivvfI6JE0inS6ya99xe1qDMTVMomlFUK0EnDmr2X+wzPcehku2wI7tsHFdD8tHuunvUXR1+eRyVayMXVdZRkhrHeYzlqRpiepCyqkjLaLmALmBAjfcdis9vQP8lz/9O06dnOLkySP8+Z9/iSDw+eBtN9PV7eZ0pFT4fo7Lt1/CF//lr7L5B6Ps27ePifEJGo06zUaTJIb+Uh/DI8Nctn0tt99+KzuvuI1iKSTI2UzNQ+HLkLAUUiz0MTKylB07t/GRj97KmRMNjh05zuTZMyRRRK1WJoodm1+iDdIPKPX0snTZci7bfDk7d1zK0mU9hDl3I0mTEfi2cZ3SdcPEP/EZf/EZaAcx3hmbRCrJ6jWrWbNmJes3rOCaXZ/n0Uce4dtf/x4TkzWakSAxOTcrZDMVNL0MbTSICqmsgoXmFJyb8jjwsuKx+yOWjJRZvbbMjh1w5VV9bNw0Qm8PmOIMQtXwJIQClO5Bx4NMTcwyv9BA2wZxWmN+PuFDH76bgirxH/79nzE70+TAgf384R/+IWna4rbbb6W3rwehDb4Xki+1uGzHcrZs/gOmpk4zXz7EXHkPZ45JmtUSS5esZ/2mYZavHKS7uxdlSwhVdTebSJGyCJTg/2/vzGPsuu77/jnLvfdt897s+ww5XMRF+2JJduRFjnd4iV0ndlI3cZOmRhKkKQq08T8GuiAFijaG0xgoiiCJm82pkzqI5XirnUiyLUW2FouUJUokRYrbkDPD2d927z3n1z/OfW8oR3IlpCko2wcgZ95+597fO+f8fr/vIgkKoZQoJidqzEwdhlvG8bkjTduIeNJum27aIXc5ShtMrEnKEaVShKURJH7MFkp3Cw8BCy7ZmS0FvOpgJA43VJMgsdjnEbAD+b9yipUXeex7n9NjrfZmFxNm7+eZgPqrbA/a34IKQffdAxHeRVxevczX/uYveeDbn+Ujv/IehuqWU4+f5g//8Et8/ZvHOX2mSyct430cgJfagayC7YYg7xuugvJVNDYkRjbFRm1KFZiahYOHJrjztSscOOxZ2FulPrSNMZC2hnn4Gwkf/dVFzj2nKNcm+Y8f/xXe/RMfxEaDPP74EX7v9z/Ft7/1MEuXLlEbqPG+972PD37wgxw6dAhrLFGi8WRon+BTjZOzqNpX8O1xXFYhiiJ01EHrKsrX0L6Kii+Fc5FHICPBHjbKEJoY0USiwZUgPwRqC2dWEZ2TuW20ilC+gs6raNbQZiOwS914kONJLiF4FCVUPgTtGag+B+kwcIiOh1IO2HWofIU8uwEnMdpuBMtYF2Zo7yNUbBCfo70nKJW4oq5tA0YCU2Cteo93QTcxKkKI0YyEv6Fn9SIxqO2rOUB7Aq4JeWbJspxLyyf5+Cf/Ne9+323cessuTKfF2lqXhx89wtfuu48HHnqWM8/B1hq47khALNFCmWYhDhgydt/X6BQgR2mPsUGYLI5htAoToyFgZ/fAvoOWifFZjn/X8LufPMWlpWESM8UHPvQW/uW/+SV275sjz3MuXLjA8ePHOXr0KE8//TRLS0uUy2UOHz7M3r17mZ6ZZGZuirnJecpxHeE82/wJjz54idXlFGM0OdsgNfAR1na4/c4halXFyWcucvasYjvLkMTjC/WSsoI9c3McOvR6VrfP8p0nvsXltTQQB32C8hWsixmoL3PgmoT6gHD0oSob2wpfapKp7RCg3QFUZ5TDt7XYs3AXsX07qQiq+ySnT32OI2fuIcsO4nwZrbtE4jC0GB6FG141zunnck6faOE7NVA5QtBbVejADZMC4q8cPWiez2OMtizs3c0NN7yKyN0VeNj9AG1fhUs88LyNECokKdYyMjLB9dfexnOnlrnxhl1E5SYTlSrvmL6W216tuP9vl/jKl7d54lFYPXeZ1uYwzZYmcwZHBUFQ2iGqS6Ba7nyad5BJRLuraa0OcOGs4fHH2kTxJvXhnFr9NKVIs75RIifCu4wHv3WE95w+x8L+eeI4ZteuXczPz3PXXXextrbGhQsXePrppzl27BjHjh2jm7YZHm7gxaFVWChXV9b4+Mc/yfGnuvhCmhQBrWBoBP79b7yFfXvH+PL//jJ//pkVVreBGDIX3KVH6vCud4wzv3+AE2ce5nd+/6947JFQvnSFQ3NsYGE/fPgXBrj5xhk+/tvHOHkCMgVZIWGjHdQs/Owvz/Phn9vFcGkdhbC28QCf/9on+N0/WKfZfQTvQsJoHFQr8Lo3wcKt+/jqvef449/rsHWZv5NU9VkHV/xUxURZq8L7f/oNzC9MMJy0MKq+Qz0gvgoD9HlAw8B3UYSCutUlfvzud/DVez/DqVOLXH+dwnUirFQYG6jzrrdO85Y3neXk8Tb3fhHu/+oqx56EtQ1oZVs4FKJkx6QXCDY55bD/yRPQCVl8ilxAZQmdtE7rYope7oDy5L6F2BaYRZ5eOsaRp+/kzh+7iXK5XKgee0qlErOzs0xNTXHrrbdijME5h+CwViHO450DHN7D+lqXxQuQZc/flTXXQfJZtIywcbnGmRMrbDbB6zjQQMhojcD2eg2jKviswsUzcPYZit6+wlDCEPr2aafB6PA+ktIxLl6ATlqmY9sBVOIg0XDy2bNsbjcZrgeVl3any6njGScfA28hz6soGsRkjDW2ibIpyvEEm5cUF589zuWVEgXFgB5vXvVWqysCV6lQEqxWod3qUKq1UD4N11x02AaIvcoCtJg9wtipb7jCs9TaEpMTu1mYv4Fnjj3GvmvmqOhRbA6RT4nULiKWObjQZtc/jXnv+0Y49tQ23/72FvfdCxcuCGurwbzLech9z5cyC3uinlmqFDuNOMKIxeU5udMoHewbgviyot0UvvjF+3n1q97CnXfeGagqRZAqpTCm8M4s9DzDlQpCtdoGbfnMucBN93n46CsSZgFEb+AUmLgdar3K4FwZKKP0OsZ2UKZTvEcEHqyPyXyCkCCUcHQweoUkGqNaXWDXwgxxfJ7t9gSiziA+QXlN5pssLgqbm11kyiEidNJ1NlvNgrUQ1PB0sZss1zvsP1ynYSugXNEI6dWn4v5foaRggMrOyqjJUTpHS8CXitoEle0gXIrrcHUFKFzxLdsJUK1DXV0piKMBDh24jZUHz/D0U2scXJjEGCEyoNU0+EmsbVFqdGk0LjI5NcDNt03x5rdVeeqpJZ48uslzp+DCOVhdcWxtOdKUQOPw4cuQG0AUTtp46aJEobCIF+IkInUp4sLs8J3vHOVTn/oUy8vLzM7OMjw8TKPRoFwuo1TgpltryfNgQR7HptCSyhGyACsUi/d56KfvNKEK66bLEGVgN8OXQwXJbUFw3hc+UJvBVsqF9xAfE1ybs2JGVjiB3FuMHmd6V5lSHfyGD6INSmOUQTRcvAhLl87jDywhGFZX11m82LsUVVAJXlIcKfVhYWZuAM00yi+iNHjdLr5ZUXENBa0K9WgvKBWDFJQRyVEkeBFy1yr2pxQ7PLlKAxTYWeRUfzuq+8tyxPDQDNcfei33ffOP2T07T2K3iWwT9Bymu47Pu9jys4EKojZJxjqMTi1y6x2aTmuApcUSJ455nvluyhNHtjj9bOgMtVohQFtoUgnLsDhXeB3EoUKQC0ZrRAvOw/raGp/+9Ke59957mZ+f56abbmLPnj0cPHiQkZER6vU6URTR7XapVqqMjAyRxELhURPo0TpCpIOQ4H0XIUKZrEDBbyFGkdNGVHBcFtpAEmY1D161weuA7NfgyRHV6ZvKWmkgGpwYjJpgfm+J+ijI2cuIdiBNnApfnJUlWF6+gNLnUJRZu9zl4oWim+ZilNIITaDDxAxMTg9gOICWkxRU+wJBlvUhVb38CMDqrFBPCcNLBiJ9zv73hsFVFqAvVFejj+BWCrzTJPEAu+au4/C+N/PVL3+NN77hAPHICLQcmA7KbqLi58hTh081RoYw8TbeZ0RxSn3BMT9reN0bYtLuFOtrwuL5JqdPb/HcaXjmpGfpMmxuQmsLOpvQbebkWZWcDKcsW60USwkTKbIs49KlSzjnOH36NHmeo7WmXq8zMDDA1NQU119/Pa9/3d285s5XBx935QsKs7sCZGj6tA0hDsluPgb5EGRTSLZYGEiUgQZCDcnOQDYF+Uhw6fMAAyCd/nt54qDr78fA7WF+bjejI0+gSCkcwEL3yDm6G7C+LHi5jGKI1ZUW29sUxmNrxXtmCDA5DxMzCSJDeN/dKZG6uDjGoGJi6SI+UKjBYiijSIlKoAqh4NiMhFKa6gFZzdUYoFeM74lV53KMMSitEA+xqXPLtW9kafE5/uKzx7jpxgMc3L+H+qDBqYt0ulVitUkcVSA1uEyHupxO0QaSJJSUSmWo1S1T04brboxpt3K2mhNsNVOarVXSjtDaTtjeitjYzBBd4/RpxxfuaXHhuS5pbsFAkiR8+MMfZmJigna7TafToVQqUavVmJ6eZmFhgenJOaIoKhSis+CpKZ2wbKsCYagAXLH02iIggtR2GBnoLGQsJMWp0qBT0C2e53ocVli8ywr0YobSltGhKUaHbegSuRhMDOJQCOlmxMr5lDy9iDGKtcvbdDuE4FKhPKRUkGIfHxumWhrH58kVucOVFzBD0SJOcmr1YtuSZxjWw5YtCpWAOLa4bh2le42Cgt+k5CoO0OcNh5AhEixolFIkkSEZGOL1d72PT/733+Q//82fc/cb7+KOO0eZm5+iVrsJlz9D5rawhBam0oLSCi8SvIuKL6s1ObHNKZWgVoMxWQEc2grWGrxAN89odrvoKOb82WE67WX+4k+EvJWBKbG1tYX3nre+9a2Mj4/3Z1FrLVEUhdvERflVQPliL5mx49BcrIna9wNWVF4Y5LLTHzeAW0Vco9gJBRyp0u3iAhfojv5sLMFZR4VArdcazExNYs15UlcC30UphxKNa9dYvrhMq/M05SRjbW2JtENw/bCb4fCoUK22mJo4RCmaCgmhtVcEaY+GHESDp2bhjW86wOhosf/MS4gYlM1JkjK33HoDVo0GBBWFUKlEoDpXaYDK997MMYU1t89dUMQI15jxiXF+6md+klO/dYKP/cZ/4uA1c7zp9Yd4zzuuYf+CoVw9hjWLpEX9RmHAl1ESB36OB/EpuXRAZxjriXJQ3iI5QY0YgzVdBqvQllWmpuEf/9x1PPbgEzxxDFIXMt7Pfvaz3Hzzzbzzne+kXC4jIv3MPo5jNIWmfq+Np3yBzioC8woSu1zZ7pVeZBaJUw9d5AqLHAlitDtkhDrIBrjgwqyoI34DLxoRS6VmmJ4tEZUF023jCLMbucf5JhsbJ2h2M3S0yerGSdodEMbBbBY10yEGaoqZieuoJNN41cQYv9P7KNT5FTlKw223z/Mrv/Z+DlwzWviBJGiqZD4U8JUqE+nxUOaTHkMUIL3aAlQ970dvaLVD2jKm8DPrARqkxJ752/jor32cyE1z331f4lO/+xU+/zk4eBhe/4b93HHna5ifeYRK2YE3uCwjUhprCJmkZIjfAYc4MpwCoehq4EE5XBqgfArPwb2eX/wIfOI34eSzDm0950+d4Rt//QB33/VmBholVLSJMinODSFZjIlB2ZXg3enrGKWJ7DFiJ8S5QnlPSnAPsRoSb4lVBecdOa3Q7WoBmQXqWCzGt1ES4Qqca/AAvRC2MxLWeMNyKK77BC0xSbyb8YkDNAZP0F4F6QKuhlfbdFSL5U3N5ZUqqFMsLa+S5Ro4j+4OAE1s+TzDM9AYHgX2kst36Pmchr5+gqINShCBqLJBHFkSboRcEWabClZNBc4/FoivEJTqFeorV1uAvtjYye52+NiCkxwRS5JU2Lf7EB/5+V9Fe81f3/d5Tpy4yLlFePTx4+y55zivuw32762xsLfO6FjGQL1DkmwRmZxIK7RoJFfkLsKbdrHk6nCSVbD7kyJRs1ELOMvdbynz7UdSLi0HXnuabfLww/dz4vhxDl9/kFhV0CZBdAZxHEwLMCDBkwhVDgVpn6AKWRspgBhBtFdzaalDZdiwnW6Q9ypvRZlG0QlGJzq94ngB1QrJlBhCK7cT7i6mX63GGR2boT4Iy+uQew2U8bTw2rO27jl/JkepTba3c7JMo1QbLcOAxhjP9Dw0hoZAhkATrCkhJF5Ar50pwMrKBidOnME3n8Z1W4yNwdDoAja5CXWFypn0hSF642or1L/MoU34o5wDGyluv+MmKtV/hTbwZ//rD/BpyrnTcO5ZeOgLMDm5zd5D29x0O9xyB+y7xjI6VsIqhxKLlgqRGkT5JbRKC1vr0D8WrRAnZA6MTRFxDI0P8pZ338wTx0/x4DcXiWM4eeYJ/upLf8nU7CTV8mSgfURLlKqXgAqKybCKCXiqON/AqYRc5eSiih62wiOstzM+91ePMv44PHqkTVsFwBFZN6grqi7egjddXiBL+T5jgMHBYQZHwJym2EIEcI41mu0tz+IFT7UWs7EWZkGlQUmKENgH87sUw0NDBJ+kJJTkVPGdkPSK7QY89gh8/L/8ASP1z6PVGq+9e5if+uA/YyR59//1SF+xASoI3ge/pMChVwia/fv38dFf/xjDQxP86Z/+Cd3mJZzL6RrP2WU4vyI8+LdQLTuGhnNm5w3XHKqxsC9idDynUltiuLFNYj3iY5AYIQFVJooiWi1Pp2VotwzLS13Or57FlxYRC912hZUlw+/83m/y9W98g5tuvJ4br7+ZydGD7D0wwPSuEWwSEjUAr1p4pfBmG2dTnDOhWF1k3528xD1/sYqOIM8hzwjS4GJRRIjqBscPV+dlYTbdKPXGEDMLcPRRUEoBbYwFsLS2UxbPWsZGazS3Q7YfymFtQGE17N4zTrVWBcpoyiEed+AToXwlNZCc1UXFw8sK3CpGOcZGLf79Ey/pUF+xAQoqZIIAfb1KTxxrpqen+Mg//2VmpnbzR3/0aZ56+hjNbB1wKBHanZztDlzehLMXunzn8S5xAqUEKhWolkPvPyxX6U6HjjCTbG+FYGk2oeVX2e6AkcFQApSM9fUmW+2jdNJBLq8MsWtujEppiBiLEgmJgAKDQ+f1AJwAtKiwwBezj4k65M0aStVxXtC2FZyQcWiaQQdUgXnZgLRRGo1Rrjnc4Muf3UQr8GQoBVnm2FiHr997mvPnNUsXc4QiB1AOqyzlcsTC3jmSpASS4CVID+EJgdmPqgxsl8xp8BolDqtAdJdm5zJjL+FIX7EBqlBoFRdKba7I9MMVM94xNz/Fh/7JzzAxMcUnfuu3efLZJ9hurSFZC1TQwxQJkMZWk0A+IsaQIKSEWmQQQgjraYgbY0K3SWtNnnm0TRCp4F0D2MS7ILV9+IYBPvChG5mf3cvM5ABGHOhmATHqABolbUxewSohLvRD84AIRAGlKLQ2rYE0b2FLG0VZDKxAqQKDwzA42Mb0aC8vZbg65VKd+V3DGL0dmgaKfumt3dY89OAKjz8ehCyK8gcAUSQMDJSZmZ4ljkIxPpyPoswkoyArBO0dB4bA+8p8vxvoaWLjl+YS8YoNUChKIwQARTCBzXHk2BjEC40hy7ve80b2H5jjt//bf+WLX/oiS5dSrDLgBXHFptwDaAzBHTlVLhTDe5C8K6oKWa8O6T0koFyKlQRll5B8HKXbeDIeeOAEuw59jLtKC5QGP0CiDjAQLaDdAKhNMCWQNVQGjYpnYgS0LlOqZ+QeNI5yklGuOFR0gaQO5RqUYxgZGKOsp5nfDUNjy+w7WCeO3feenu8zKpRLg8zMTFGrLbK11Snc/cKjXQepg3YXPAatTKBvezCRY9eeEUZH5kjiAQIjNmyxwp6zYIP6An0vOXmqMEiAEwIQIc9z7nvx8YoOUK5YevvY0UKnXWlBJCcuKw5du5t/97F/y123v5ZP/f7/4LHHjpBnYf8q4guFOMHTQRMIaOKTgD73hcmqD5QEraIgwy05IikxQjXeImkIh244TRKN8shDbVZOwu/8huVzn7rMgev+mMHGKLvmGuyas9QaKZGtEMWKTn6St71nN29+2xhx1CBT53CSExtLxSryzOLRtLMNnDlLfSRl/74ytaTCiSc3OXGsTdYc47pDL+NSKkjiBtOTBxidPMLq5YDw2jmtfR87IEIkR/swIUQJTM4aytEsWg1Q9DZDZUEDXCquiQVqkGoUCQqPpYtVLXxnCMmGXtKhvrIDtBecQtgcEhA0YfkPnRmPIynB9FzMP/rJ13Pw4DSf+dO/5JvfeIjz588DjnIZMrcRvJg8JGk3JF3KBeluBVY7jEqJrMJaISlBY9Ay2sjZuwf2Xgs33zHH8qUS3c4Kjz87vNQAAA0jSURBVD0EmytlNtcUJ589S1Q+S7UM5QhKtYCFtCZILiYGEnuJLPWktIgiiDRUDcQ1qA7B4EgAMJerVR785hnOnDzDM0dhfRXe9vYB3EuckcJIgYTBgQUmpyOefSYwVukHZlDFEymH5gJ5vwOZlGHX3hJlOwdUQKWhNNbLB1QPJOKKz1HEpZWg1OLD3x2X14ii9AWO6++OH4wAhWJ5KcCuEoUlXDKMiXC+jTLrNIYtr3nttVx3w0H+5mtf58/+/M/Y2lrhltv2kvtlzl98km6+RmfF4LMUzzZR0a8vJ1AuwdBQTGPQMDRqmJ1rMDO9ysRUi9ogOHWBy5dLtDPNmTOepcUt0qxEtzlAK99idcVg3DyizhGIb2XAUbbgc481nqQWPm9mAvbsn+GOt24zvddwabnLA/e2+eI9Tc6chvXlABgam4JcCy+LuaO6KGIq8SxzuyrEyRqKhN5sKD2on7OBhVBA30QiBocz9h2qE5tp8GUw2yhyRPSOCS6WULZqgoLpBbj5poiBZAjxy1x/U5U4ab6kQ30FB2gvZewbRoKEbqEuGtfexcXGPUa7Rl8IIongjT/+Xm69/Q4effw+jn73fvbvO8BPfPBuBocSynwN/DPkfg2lW0SRJrYxkhusAaU7aN1C24vYvAxuELfVhrhLo6b4sdfs470fuMBn/rDNpQuTpB507vDW47kU8J0qA7eNAloaRsZg13yFG14FBw8NMTk6ysa5Nre8ZpooGeUrn3+ae/4nbLeEzHfRJibPoeu7dPIxXhasQmcoiYnNKPMLw5RK54tMPQA8eqZeOEVwqJMALCGiPuiYnqtiGAIfgckAh3hdFCeCagu0+n7kb3tnlV/8+Z9j9/hdSOoolxzlgTleyq75FRygvf60fv5dBQZSqcCd6Y8rGAdJCZJKmVJlmje87u1cc81Bzpw9wROPnWFw0LJ3boGJsTEa9Q6eRVArKLWGSjbRqoVWaUjQBIzxCDHK5IES4bapDqzz9nfs5cH7H2dp8TQJU7h0gEhrUh9YoqUS1Mdg7yG45jBMTdSI2cXq6gp/e1+bpQvHybtw6FW3MD83iVXn6bZX6XQ8ufIFGl2jco91DusleN0GGD47DXtBivKaCRrrxckYxbDA1HxCtQH6bAcoI2QoF6goQguhhKeE0S20sww36gwPlzBRGfQwITHVYLYDrV4FfCcUEAMNlWgfI40DDA2Pgq+ClEFqaNmmb9KLRrnR4rJKUcrIfhAC9IqbvV/V83++0CsB4riE1qMszA8yM3kta2trPPXUUxz9zhZn6xXmdleYmNqDMmfJshPYaIkkbqHpgOQYpfBSQuFRNin0pGLE12gMDDE2Gj4s1mtYO4iJW5TqWwwNaxZ2T3Lr7RPc+UbHydNHeOI72zz+re9y6gRsrYJLFYMjQrczAVLH6FCl6EMpfFDr0wJWWmgvfayJKA/So08EYQuldpB4GINIDaPHmd01SGMYtEpBykFbnyLQVRa6aRLjNcSmzfjYBGOjI5jIhFmTGg7bL8WFA8h7v6AVdFuW9bUtapUTaKmi3GDwJVVn0SZUXZJkAOuGKBTXirzCvZID9O8/ekijJEmw1lKtVpmZmWFr7SbOnX2GU88+zgMPHkXbVUZGBhkZGWT37jHGRmtEEfgsQ+uz2GiF1HXxvkLZzqO6MzzywFOcOhFIeqbUYWJujWtvE265S3PrzbdxeO/djNRnubD8BP/h149w9GFIu2OI2QpFc+0QB+IrBN7UTvcwTFBRgOppgv2jUjsQPQNcsYD270dAWVA6cNi1MD09Q2MosElFtkPBovgXDDy6RY0YokrG1EyJwdoMmjyg8cmAGFwjeKV6RTAVC2rXWsORJx7hs/d8l8agK9B0ZVAVHBHiIg4dPshdd72duj6AkuErxE2jH+4A1VrjnOsHqogEv8tklIX94+zeewutziorK6e5sHicI0ce4wtfOEGzuc5go8bc3Czjg3OMDR6kXCuxvrHFM8fP8dST9/PoY89gy2Xe9t46h28e4tWv28387DVMDF1PrVohVmMEvOTT6HwfPs3J0XjfCooehUSq6C5iNpHoMj16eRgZIg6x4KMVvC5sdQTEWQLAOcygoh1e8uBFr4NcuSZBi2egOsno6BA2XqPbKeOljRcFxKHEpgHdRAHlBkzPjhNzPcJA/zieZ3/TL1CVwOeQ5nz3ITj7VAfxYU8puQlfqiSAx9/1/oxbX3U79UoLpEFfj9SbH+4A7QWkUqrPxNRaU6mFlodzA5QqAzQG55iavonDh97OhYtnuHjxHEvLF1lbu8zqygZPZht000WyPMNGNcYmb+NDP/tuZnePMz1fZXTaMzLuiZkg5hDgIbd4dR7sJpn3OBxCExXliEsQUSHYikvUR91DMY3WEDaDwRcGUbLTDycioO01kIFkCHmYFQMmLgibGUOlNMHc3DxJeY12xxeeIRFQIkzhTXoEtsYwzM7sxribQY8Upb0MRY4m7Xfbwv8aSEINt5nT3vZ4gYgBhCpBs6qJth2a61W8pIh0i5Z1oSzsXtFJ0t9/qB7MS8LF6t02OnQ9jAr0EmM0g4MNBgYaTE7PgIJcHFnWodu9TLO5RKe7hTGKanmAwfoEhmBqa3WMMoLPuliVhPW3qCaIvowzixCtItE23oc9JlIJF1FyRGJEbKB4FPhlqANDgAG3Cq6xE6SKUCHo80fyAOnbQROHuJOwFJeiCaamp0gqj8Naq3heFj5Ih9fqon45PAbjo7ugcyDEvwVIUTiUCpykQNRTfXaAwpMpj0hY7lNSvFdoqkR+CpW2wNVCG1TYmT0JidIPfYCqF8yk0tDbFgM9sLQKRfVwAXO0SokSTxLNUy3Ph6RTt9C6E0AgFJLjBDEzrSsEdHwaqJgqAoL5l3dpeE9bxF/UAlpEsQG1gTYDSE8GMoLUddG4wPQQMKpUZN05NiJk+DZHimaAuHDswWcJ0GW0quAcJHaSifERBkdh6RJXiFp0Qjs9Vxg/iNFdDh5oMTI6FlRRFCiaeDoghkiXg26bjBbnMJQBRbmADO3ns91COXATzSI2BhXnONkKlGSni6Zg6P//UAfoiw7p8WuulCC5olDQrwsq+nL6ChQVFDE7toBFLQoXTrjXAXFuHPjAjDQyjlEDWG/weRNf9P+NIrA/JfguRaqG1WtBmMGkiN9C48Lz8ijQR1BBeytXCCWUNqjcgW8HoQ4vQBoEKLwHZTCMMz42z8Q4nDwaSkMi4CVCdI7xYxgS8E327J2kVrdhETCX8XQxePKsDHkSGAp25fuc197PcF76lowSga+HBktv4i9O/48C9IWGPD8ww31X3igq0CpYYPdBK1DQFwpr7H5RKOTfIjrszpSA7haT8TBGeYxojB9BuIzyCmNcgIbmCTpv4DsNyNfQgI2ENF1HExWOzgkuT0M+4yGiilBDvMZq8GJRfgucx7kO2jqc5FhtUNJgfGSS2elxrCwV+94qwgDiHYkuoU0HZVL27JmnUk0Q3UTRwRdlLy0lrNb99u3zzpkUS7fY0A6VAjOBwxZuzrgqKh8hz4U48mEaL87pjwL0xcb3a22L7qfT2uQFPC9GYfvyluHlBRSqd2cR906tY1QXRYr2FZRdxsSQtIewVNFSRvucSK2jsiF0NoXNZoj8JSIdzGythUhlxIVQQmzjvqNJZJrkrosj7P2scUQ27K1NVAosAQKSS3yJRqPC/n2jRGap2Oe2QQJ8xutldAnGJmFicoRaZQgtGkcliPv6HMRj43VKBipZb9Wgv4B4DD1+VKAuB6hdnhmSssPqAZQfJbIGTLNIvqrAD3kd9MWG75dypNhDuqJ8EhKLotDY7zvrXnG79zLVz2bCc4NoUWEOnIYevK+C6zAyOMu/+OghVi4to/0wXjXRVPB5hdgc4trbLzPUSHnH++vsOvBa0miZPFpCTI5N6zQqjgP7K1RLNRYWpvmFX9rNT//0JLleJEpSstRh3Qzlas4NN+4GRlB+mFBHFZT2DI+3edtPjDE+ejOodui9A6Jb5H4OVIl63bNv317ww+SdMhKVA4jGeHLb4bU/PsPIxDq5q9PXBxWPUjqYXahCl0BloFMcgtcVULBv3xTVRhtlugRNp6AxFVqyV5M+6FUyQmj1yuK94AwBGpZwvfOwhpB5XLl56gWo2snai+d6lYX9q9OI30DsM7SyI3TTdYxKQHVBYsSVwdcYHNxCIaTdGu1mFWe3kHgzBEEaE1tPpKFk7iCVS2x3zmFVnY47T1xyZKkn1tMgmtiMUonuAD2yo6KnNxEepZU/Q9qsgmoXs5wH3UWkjkgFpR2V0hCJvhaVL+B6rV7bQdRR8u5zZNl2IfS2o2wHCn9FhIkKlQFR4FRQdja6Sq08S8RhgiJJFLYEKv1RgF4Nw/sXRsO/UIXh5V6uF3qPF65cvLzjeLFjeznH91Le90dL/FUwXixgXs5z/1/MMy/nOP4hXv+C7/mjGfQHY7zYZfyHCJr/n+NHM+gPyHilB+KLjf8De1BrciJlOYcAAAAASUVORK5CYII=;" vertex="1" parent="zNEOuFTtf5db0waN-gQl-51">
          <mxGeometry x="277.76" y="63.25" width="89.01" height="80" as="geometry" />
        </mxCell>
        <mxCell id="zNEOuFTtf5db0waN-gQl-82" style="edgeStyle=orthogonalEdgeStyle;rounded=0;orthogonalLoop=1;jettySize=auto;html=1;fontSize=12;fontColor=#000000;" edge="1" parent="1" source="zNEOuFTtf5db0waN-gQl-40" target="wemDOvCP56XmbDkSIcLU-91">
          <mxGeometry relative="1" as="geometry" />
        </mxCell>
        <mxCell id="zNEOuFTtf5db0waN-gQl-83" style="edgeStyle=orthogonalEdgeStyle;rounded=0;orthogonalLoop=1;jettySize=auto;html=1;fontSize=12;fontColor=#000000;" edge="1" parent="1" source="zNEOuFTtf5db0waN-gQl-52" target="wemDOvCP56XmbDkSIcLU-91">
          <mxGeometry relative="1" as="geometry" />
        </mxCell>
        <mxCell id="zNEOuFTtf5db0waN-gQl-84" style="edgeStyle=orthogonalEdgeStyle;rounded=0;orthogonalLoop=1;jettySize=auto;html=1;fontSize=12;fontColor=#000000;" edge="1" parent="1" source="wemDOvCP56XmbDkSIcLU-76" target="wemDOvCP56XmbDkSIcLU-91">
          <mxGeometry relative="1" as="geometry" />
        </mxCell>
      </root>
    </mxGraphModel>
  </diagram>
</mxfile>
